<?xml version="1.0" encoding="utf-8"?>
<!-- Generator: Adobe Illustrator 27.8.1, SVG Export Plug-In . SVG Version: 6.00 Build 0)  -->
<svg version="1.1" id="Layer_1" xmlns="http://www.w3.org/2000/svg" xmlns:xlink="http://www.w3.org/1999/xlink" x="0px" y="0px"
	 viewBox="0 0 200 200" style="enable-background:new 0 0 200 200;" xml:space="preserve">
<style type="text/css">
	.st0{fill:#F2F4F8;stroke:#000000;stroke-width:0.5;stroke-miterlimit:10;}
	.st1{fill:#F1C21B;}
</style>
<path class="st0" d="M119.4,10.9c13.5,6.9,19.2,28.2,30.8,46.7c11.6,18.6,28.8,34.2,27.9,49.3c-1.1,15.2-20.3,29.6-32.9,46.3
	c-12.6,16.7-18.5,35.6-31.1,38.3c-12.6,2.9-31.8-10.4-45.4-20.4c-13.4-9.9-21.2-16.7-30.8-21.2s-21-6.8-24.3-13.5
	c-3.3-6.6,1.7-17.7,3.8-27.6c2-9.9,1.2-18.6,2-29.7c0.8-11.1,3-24.6,10.5-34.8C37.4,33.7,50.3,26.5,67.4,19
	C84.4,11.6,105.9,4,119.4,10.9z"/>
<path class="st1" d="M104.3,87.9c3.6,6.8,0.5,17.5-4.8,24.3c-5.3,6.9-12.6,10-17.3,8.4c-4.6-1.7-6.4-8-9.5-13.7
	c-3.1-5.7-7.5-10.5-6.7-15.6c1-5.2,7.2-10.7,15.6-12C90.1,78,100.6,80.9,104.3,87.9z"/>
</svg>
