<svg width="1920" height="960" viewBox="0 0 1920 960" fill="none" xmlns="http://www.w3.org/2000/svg">
<g clip-path="url(#clip0_18_418)">
<rect width="1920" height="960" fill="#121213"/>
<g opacity="0.2">
<g filter="url(#filter0_d_18_418)">
<rect x="245" y="125.561" width="183" height="183" rx="13.0714" transform="rotate(-11.8444 245 125.561)" fill="#3A3A3C"/>
<path d="M361.19 160.92L372.989 158.446L381.912 200.996C382.89 205.66 382.648 209.994 381.186 213.997C379.745 217.995 377.251 221.406 373.704 224.231C370.153 227.034 365.727 228.991 360.427 230.103C355.106 231.219 350.256 231.207 345.878 230.066C341.496 228.905 337.841 226.783 334.915 223.7C331.989 220.618 330.037 216.744 329.059 212.08L320.135 169.53L331.933 167.056L340.65 208.62C341.219 211.334 342.32 213.626 343.952 215.497C345.605 217.364 347.65 218.672 350.087 219.423C352.519 220.152 355.23 220.203 358.22 219.577C361.209 218.95 363.671 217.814 365.606 216.168C367.557 214.498 368.904 212.478 369.647 210.108C370.389 207.739 370.476 205.198 369.907 202.484L361.19 160.92Z" fill="white"/>
</g>
<g filter="url(#filter1_d_18_418)">
<rect x="1515.16" y="97" width="130.035" height="130.035" rx="9.28819" transform="rotate(8.91763 1515.16 97)" fill="#3A3A3C"/>
<path d="M1577.94 149.076L1586.33 150.394L1581.18 183.239C1580.69 186.248 1579.65 188.74 1578.04 190.717C1576.44 192.678 1574.42 194.066 1571.97 194.881C1569.54 195.684 1566.82 195.85 1563.83 195.38C1561.09 194.951 1558.7 194.078 1556.67 192.761C1554.65 191.431 1553.15 189.701 1552.18 187.569C1551.2 185.437 1550.94 182.934 1551.39 180.06L1559.81 181.381C1559.62 182.646 1559.73 183.776 1560.12 184.772C1560.52 185.77 1561.16 186.588 1562.05 187.225C1562.93 187.861 1563.99 188.278 1565.24 188.473C1566.59 188.686 1567.78 188.585 1568.81 188.17C1569.85 187.74 1570.7 187.001 1571.36 185.952C1572.04 184.905 1572.51 183.562 1572.79 181.922L1577.94 149.076Z" fill="white"/>
</g>
<g filter="url(#filter2_d_18_418)">
<rect x="1831.16" y="540" width="130.035" height="130.035" rx="9.28819" transform="rotate(8.91763 1831.16 540)" fill="#3A3A3C"/>
<path d="M1865.29 635.446L1872.62 588.732L1890.14 591.481C1893.73 592.044 1896.64 593.14 1898.88 594.768C1901.13 596.399 1902.71 598.438 1903.6 600.884C1904.51 603.317 1904.73 606.024 1904.27 609.005C1903.8 612 1902.75 614.501 1901.13 616.505C1899.52 618.497 1897.39 619.9 1894.74 620.715C1892.09 621.514 1888.97 621.632 1885.38 621.069L1872.91 619.112L1874.01 612.086L1885.34 613.865C1887.44 614.194 1889.21 614.175 1890.64 613.807C1892.07 613.424 1893.19 612.72 1894.01 611.695C1894.84 610.657 1895.38 609.309 1895.64 607.652C1895.9 605.994 1895.8 604.529 1895.33 603.255C1894.86 601.967 1894.01 600.913 1892.76 600.095C1891.52 599.262 1889.85 598.679 1887.73 598.347L1879.98 597.131L1873.76 636.773L1865.29 635.446ZM1892.75 618.065L1900.99 641.047L1891.55 639.565L1883.51 616.616L1892.75 618.065Z" fill="white"/>
</g>
<g filter="url(#filter3_d_18_418)">
<rect x="1542.1" y="774" width="222.894" height="222.894" rx="15.921" transform="rotate(12.2005 1542.1 774)" fill="#3A3A3C"/>
<path d="M1593.69 940.667L1610.82 861.445L1662.35 872.586L1659.75 884.616L1622.57 876.578L1617.92 898.086L1652.43 905.546L1649.83 917.577L1615.32 910.116L1610.65 931.74L1648.13 939.844L1645.53 951.874L1593.69 940.667Z" fill="white"/>
</g>
<g filter="url(#filter4_d_18_418)">
<rect x="960.157" y="-74" width="130.035" height="130.035" rx="9.28819" transform="rotate(8.91763 960.157 -74)" fill="#3A3A3C"/>
<path d="M996.992 21.8688L1004.32 -24.845L1012.78 -23.5171L1006.57 16.1029L1027.14 19.3312L1026.03 26.4249L996.992 21.8688Z" fill="white"/>
</g>
<g filter="url(#filter5_d_18_418)">
<rect x="608" y="6.8985" width="130.035" height="130.035" rx="9.28819" transform="rotate(-14.2 608 6.8985)" fill="#3A3A3C"/>
<path d="M673.916 82.0243L662.316 36.1838L670.621 34.0825L675.531 53.4886L696.773 48.1137L691.862 28.7075L700.189 26.6006L711.788 72.4412L703.461 74.5481L698.534 55.0748L677.292 60.4498L682.22 79.923L673.916 82.0243Z" fill="white"/>
</g>
<g filter="url(#filter6_d_18_418)">
<rect x="838.744" y="97" width="93.8598" height="93.8598" rx="6.70427" transform="rotate(7.18755 838.744 97)" fill="#3A3A3C"/>
<path d="M867.472 135.953L868.12 130.81L895.137 134.218L894.489 139.36L884.023 138.04L880.401 166.76L874.316 165.993L877.938 137.273L867.472 135.953Z" fill="white"/>
</g>
<g filter="url(#filter7_d_18_418)">
<rect x="849" y="785.2" width="130.035" height="130.035" rx="9.28819" transform="rotate(-18.9371 849 785.2)" fill="#3A3A3C"/>
<path d="M940.082 814.015C939.314 812.961 938.449 812.078 937.489 811.366C936.538 810.634 935.504 810.086 934.386 809.721C933.283 809.351 932.106 809.193 930.855 809.248C929.6 809.288 928.302 809.538 926.963 809.998C924.561 810.822 922.628 812.16 921.164 814.013C919.701 815.866 918.832 818.149 918.559 820.863C918.296 823.557 918.738 826.579 919.887 829.927C921.046 833.305 922.559 835.983 924.426 837.963C926.293 839.942 928.383 841.219 930.695 841.792C933.002 842.351 935.408 842.201 937.912 841.342C940.184 840.563 941.999 839.452 943.359 838.009C944.734 836.561 945.598 834.881 945.951 832.97C946.299 831.044 946.101 828.996 945.357 826.827L947.289 826.482L935.146 830.648L932.973 824.314L951.121 818.088L952.965 823.46C954.278 827.289 954.6 830.881 953.928 834.236C953.256 837.591 951.754 840.515 949.42 843.008C947.08 845.487 944.062 847.361 940.364 848.629C936.244 850.043 932.308 850.36 928.558 849.58C924.818 848.78 921.487 846.969 918.566 844.148C915.655 841.306 913.39 837.527 911.771 832.809C910.532 829.199 909.935 825.799 909.981 822.61C910.04 819.417 910.655 816.512 911.824 813.898C912.989 811.269 914.639 809.011 916.774 807.123C918.904 805.22 921.432 803.767 924.358 802.763C926.834 801.914 929.266 801.486 931.656 801.48C934.041 801.459 936.291 801.826 938.405 802.581C940.534 803.332 942.449 804.432 944.151 805.882C945.853 807.333 947.248 809.1 948.337 811.183L940.082 814.015Z" fill="white"/>
</g>
<g filter="url(#filter8_d_18_418)">
<rect x="159.951" y="189" width="134.224" height="134.224" rx="9.58745" transform="rotate(14.2111 159.951 189)" fill="#3A3A3C"/>
<path d="M189.765 290.423L180.616 288.106L209.256 245.009L219.837 247.689L224.535 299.228L215.386 296.911L212.274 256.099L211.904 256.005L189.765 290.423ZM194.763 271.947L219.715 278.266L217.971 285.151L193.02 278.832L194.763 271.947Z" fill="white"/>
</g>
<g filter="url(#filter9_d_18_418)">
<rect x="1569" y="317.664" width="158.992" height="158.992" rx="11.3565" transform="rotate(-13.7032 1569 317.664)" fill="#3A3A3C"/>
<path d="M1650.3 409.004L1620.75 356.7L1631.7 354.032L1651.88 392.841L1652.4 392.714L1653.14 348.802L1663.1 346.374L1684 385.037L1684.5 384.917L1684.55 341.145L1695.49 338.477L1693.33 398.511L1683.3 400.959L1662.44 364.289L1662 364.396L1660.34 406.556L1650.3 409.004Z" fill="white"/>
</g>
<g filter="url(#filter10_d_18_418)">
<rect x="1810.59" y="63.6969" width="158.992" height="158.992" rx="11.3565" transform="rotate(-6.90103 1810.59 63.6969)" fill="#3A3A3C"/>
<path d="M1899.01 161.784L1879.56 164.138L1872.62 106.741L1892.46 104.34C1898.16 103.65 1903.19 104.207 1907.56 106.01C1911.95 107.792 1915.5 110.688 1918.22 114.7C1920.95 118.712 1922.67 123.698 1923.39 129.658C1924.11 135.637 1923.62 140.909 1921.92 145.476C1920.24 150.04 1917.45 153.723 1913.56 156.525C1909.69 159.325 1904.84 161.078 1899.01 161.784ZM1888.87 153.883L1897.42 152.849C1901.42 152.365 1904.66 151.232 1907.16 149.452C1909.65 147.652 1911.4 145.214 1912.39 142.136C1913.38 139.04 1913.61 135.297 1913.08 130.906C1912.54 126.515 1911.43 122.954 1909.73 120.22C1908.04 117.469 1905.78 115.533 1902.98 114.413C1900.18 113.272 1896.84 112.937 1892.96 113.407L1884.1 114.479L1888.87 153.883Z" fill="white"/>
</g>
<g filter="url(#filter11_d_18_418)">
<rect x="-88" y="75.1036" width="158.992" height="158.992" rx="11.3565" transform="rotate(-6.90103 -88 75.1036)" fill="#3A3A3C"/>
<path d="M-14.4069 174.985L-21.3537 117.588L15.9763 113.07L17.0312 121.786L-9.90131 125.046L-8.01537 140.628L16.9834 137.602L18.0383 146.318L-6.96047 149.344L-5.06436 165.01L22.0924 161.723L23.1473 170.439L-14.4069 174.985Z" fill="white"/>
</g>
<g filter="url(#filter12_d_18_418)">
<rect x="-34.6249" y="435" width="193.771" height="193.771" rx="11.3565" transform="rotate(4.25444 -34.6249 435)" fill="#3A3A3C"/>
<path d="M41.7663 509.056L53.3955 555.554L53.9867 555.598L72.3396 511.33L83.8257 512.185L59.2108 568.329L46.317 567.369L30.3083 508.204L41.7663 509.056Z" fill="white"/>
</g>
<g filter="url(#filter13_d_18_418)">
<rect x="170.269" y="704.611" width="158.992" height="158.992" rx="11.3565" transform="rotate(-5.53746 170.269 704.611)" fill="#3A3A3C"/>
<path d="M232.118 757.856L231.27 749.117L277.183 744.666L278.03 753.405L260.244 755.129L264.976 803.936L254.636 804.938L249.904 756.132L232.118 757.856Z" fill="white"/>
</g>
<g filter="url(#filter14_d_18_418)">
<rect x="968" y="808.779" width="232.698" height="232.698" rx="16.6213" transform="rotate(-8.09793 968 808.779)" fill="#3A3A3C"/>
<path d="M1080.25 953.409L1068.33 869.635L1122 861.999L1123.81 874.721L1085.32 880.197L1088.55 902.941L1123.36 897.988L1125.17 910.709L1090.36 915.662L1095.43 951.25L1080.25 953.409Z" fill="white"/>
</g>
<g filter="url(#filter15_d_18_418)">
<rect x="390.98" y="760" width="146.95" height="146.95" rx="10.4964" transform="rotate(13.3697 390.98 760)" fill="#3A3A3C"/>
<path d="M421.246 869.979L433.602 817.991L453.098 822.625C457.092 823.574 460.278 825.064 462.656 827.095C465.05 829.131 466.644 831.566 467.436 834.4C468.25 837.222 468.262 840.291 467.474 843.608C466.681 846.942 465.283 849.667 463.278 851.783C461.294 853.886 458.773 855.28 455.713 855.965C452.658 856.634 449.134 856.493 445.14 855.544L431.254 852.244L433.112 844.425L445.729 847.424C448.064 847.979 450.053 848.112 451.695 847.823C453.341 847.517 454.668 846.822 455.677 845.739C456.706 844.642 457.44 843.172 457.878 841.327C458.317 839.483 458.327 837.822 457.909 836.346C457.495 834.853 456.624 833.591 455.296 832.56C453.971 831.513 452.133 830.709 449.781 830.15L441.15 828.099L430.664 872.218L421.246 869.979ZM453.702 852.805L460.973 879.421L450.464 876.924L443.421 850.362L453.702 852.805Z" fill="white"/>
</g>
</g>
<g filter="url(#filter16_d_18_418)">
<rect x="377" y="292" width="177.496" height="177.496" rx="16" fill="#3E9F1C"/>
<path d="M437.035 415L417.14 346.636H435.399L445.714 391.433H446.281L458.064 346.636H472.952L484.736 391.533H485.303L495.651 346.636H513.877L494.015 415H478.093L465.775 373.541H465.241L452.924 415H437.035Z" fill="white"/>
<rect x="377" y="489.782" width="177.496" height="177.496" rx="16" fill="#3A3A3C"/>
<path d="M478.873 563.211C478.562 560.296 477.249 558.026 474.934 556.402C472.642 554.777 469.66 553.965 465.988 553.965C463.407 553.965 461.193 554.354 459.345 555.133C457.498 555.912 456.085 556.969 455.106 558.304C454.127 559.64 453.626 561.164 453.604 562.878C453.604 564.302 453.927 565.537 454.572 566.583C455.24 567.629 456.141 568.519 457.276 569.253C458.411 569.965 459.668 570.566 461.048 571.056C462.428 571.545 463.818 571.957 465.22 572.291L471.63 573.893C474.211 574.494 476.692 575.306 479.073 576.33C481.477 577.354 483.624 578.644 485.516 580.202C487.43 581.76 488.943 583.64 490.056 585.844C491.168 588.047 491.725 590.628 491.725 593.588C491.725 597.594 490.701 601.121 488.654 604.17C486.606 607.196 483.647 609.566 479.774 611.28C475.925 612.971 471.262 613.817 465.788 613.817C460.469 613.817 455.852 612.993 451.935 611.346C448.041 609.7 444.992 607.296 442.789 604.136C440.608 600.976 439.428 597.126 439.25 592.586H451.434C451.612 594.968 452.347 596.948 453.637 598.528C454.928 600.108 456.608 601.288 458.678 602.067C460.77 602.845 463.106 603.235 465.688 603.235C468.38 603.235 470.739 602.834 472.764 602.033C474.812 601.21 476.414 600.075 477.571 598.628C478.728 597.16 479.318 595.446 479.34 593.488C479.318 591.707 478.795 590.239 477.772 589.081C476.748 587.902 475.313 586.923 473.465 586.144C471.641 585.343 469.504 584.631 467.056 584.008L459.279 582.005C453.648 580.558 449.198 578.366 445.926 575.429C442.677 572.469 441.053 568.541 441.053 563.645C441.053 559.617 442.143 556.09 444.324 553.064C446.527 550.037 449.52 547.689 453.304 546.02C457.087 544.329 461.371 543.483 466.155 543.483C471.006 543.483 475.257 544.329 478.907 546.02C482.578 547.689 485.46 550.015 487.552 552.997C489.644 555.957 490.723 559.362 490.79 563.211H478.873Z" fill="white"/>
<rect x="574.782" y="292" width="177.496" height="177.496" rx="16" fill="#3E9F1C"/>
<path d="M695.895 380.818C695.895 388.34 694.448 394.716 691.555 399.945C688.662 405.175 684.746 409.147 679.805 411.862C674.887 414.577 669.368 415.935 663.248 415.935C657.106 415.935 651.576 414.566 646.658 411.829C641.74 409.092 637.835 405.119 634.942 399.912C632.071 394.682 630.635 388.318 630.635 380.818C630.635 373.296 632.071 366.921 634.942 361.691C637.835 356.461 641.74 352.489 646.658 349.774C651.576 347.059 657.106 345.702 663.248 345.702C669.368 345.702 674.887 347.059 679.805 349.774C684.746 352.489 688.662 356.461 691.555 361.691C694.448 366.921 695.895 373.296 695.895 380.818ZM679.004 380.818C679.004 376.367 678.37 372.607 677.101 369.535C675.855 366.464 674.053 364.139 671.694 362.559C669.357 360.979 666.542 360.189 663.248 360.189C659.977 360.189 657.162 360.979 654.803 362.559C652.444 364.139 650.63 366.464 649.362 369.535C648.116 372.607 647.493 376.367 647.493 380.818C647.493 385.269 648.116 389.03 649.362 392.101C650.63 395.172 652.444 397.497 654.803 399.077C657.162 400.657 659.977 401.447 663.248 401.447C666.542 401.447 669.357 400.657 671.694 399.077C674.053 397.497 675.855 395.172 677.101 392.101C678.37 389.03 679.004 385.269 679.004 380.818Z" fill="white"/>
<rect x="574.782" y="489.782" width="177.496" height="177.496" rx="16" fill="#3A3A3C"/>
<path d="M694.714 578.6C694.714 585.966 693.334 592.275 690.575 597.527C687.837 602.756 684.099 606.762 679.359 609.544C674.641 612.326 669.289 613.716 663.303 613.716C657.316 613.716 651.953 612.326 647.213 609.544C642.495 606.74 638.757 602.723 635.997 597.493C633.26 592.242 631.891 585.944 631.891 578.6C631.891 571.234 633.26 564.936 635.997 559.706C638.757 554.455 642.495 550.438 647.213 547.656C651.953 544.874 657.316 543.483 663.303 543.483C669.289 543.483 674.641 544.874 679.359 547.656C684.099 550.438 687.837 554.455 690.575 559.706C693.334 564.936 694.714 571.234 694.714 578.6ZM682.263 578.6C682.263 573.415 681.451 569.042 679.826 565.481C678.224 561.898 675.998 559.195 673.15 557.37C670.301 555.523 667.019 554.599 663.303 554.599C659.586 554.599 656.304 555.523 653.455 557.37C650.607 559.195 648.37 561.898 646.746 565.481C645.144 569.042 644.342 573.415 644.342 578.6C644.342 583.785 645.144 588.169 646.746 591.752C648.37 595.313 650.607 598.016 653.455 599.863C656.304 601.688 659.586 602.601 663.303 602.601C667.019 602.601 670.301 601.688 673.15 599.863C675.998 598.016 678.224 595.313 679.826 591.752C681.451 588.169 682.263 583.785 682.263 578.6Z" fill="white"/>
<rect x="772.564" y="292" width="177.496" height="177.496" rx="16" fill="#C49318"/>
<path d="M835.118 415V346.636H863.359C868.477 346.636 872.894 347.56 876.611 349.407C880.349 351.232 883.231 353.858 885.256 357.285C887.281 360.69 888.294 364.729 888.294 369.402C888.294 374.142 887.259 378.17 885.189 381.486C883.12 384.779 880.182 387.294 876.377 389.03C872.572 390.743 868.065 391.6 862.858 391.6H844.999V378.582H859.787C862.279 378.582 864.36 378.259 866.029 377.614C867.72 376.946 869 375.945 869.868 374.609C870.736 373.252 871.17 371.516 871.17 369.402C871.17 367.288 870.736 365.541 869.868 364.161C869 362.759 867.72 361.713 866.029 361.023C864.338 360.311 862.257 359.955 859.787 359.955H851.642V415H835.118ZM873.606 383.756L890.631 415H872.605L855.915 383.756H873.606Z" fill="white"/>
<rect x="772.564" y="489.782" width="177.496" height="177.496" rx="16" fill="#3A3A3C"/>
<path d="M841.185 612.782V544.418H853.57V602.4H883.679V612.782H841.185Z" fill="white"/>
<rect x="970.345" y="292" width="177.496" height="177.496" rx="16" fill="#3E9F1C"/>
<path d="M1054.96 415H1029.69V346.636H1054.92C1061.89 346.636 1067.89 348.005 1072.92 350.742C1077.97 353.457 1081.86 357.374 1084.6 362.492C1087.34 367.588 1088.7 373.686 1088.7 380.785C1088.7 387.906 1087.34 394.026 1084.6 399.144C1081.88 404.263 1078 408.19 1072.95 410.928C1067.9 413.643 1061.9 415 1054.96 415ZM1046.21 400.913H1054.32C1058.15 400.913 1061.39 400.268 1064.04 398.977C1066.71 397.664 1068.72 395.539 1070.08 392.602C1071.46 389.642 1072.15 385.703 1072.15 380.785C1072.15 375.867 1071.46 371.95 1070.08 369.035C1068.7 366.097 1066.66 363.983 1063.97 362.692C1061.3 361.379 1058.01 360.723 1054.09 360.723H1046.21V400.913Z" fill="white"/>
<rect x="970.345" y="489.782" width="177.496" height="177.496" rx="16" fill="#3A3A3C"/>
<path d="M1040.72 544.418L1058.52 598.228H1059.22L1076.98 544.418H1090.59L1066.49 612.782H1051.21L1027.14 544.418H1040.72Z" fill="white"/>
<rect x="1365.91" y="292" width="177.496" height="177.496" rx="16" fill="#3E9F1C"/>
<path d="M1430.58 415V346.636H1478.24V360.055H1447.1V374.075H1475.81V387.528H1447.1V401.581H1478.24V415H1430.58Z" fill="white"/>
<rect x="1168.13" y="292" width="177.496" height="177.496" rx="16" fill="#C49318"/>
<path d="M1235.04 415V346.636H1251.57V401.581H1280.01V415H1235.04Z" fill="white"/>
<rect x="1168.13" y="489.782" width="177.496" height="177.496" rx="16" fill="#3A3A3C"/>
<path d="M1234.82 612.782V544.418H1279.28V554.8H1247.21V573.359H1276.98V583.741H1247.21V602.4H1279.55V612.782H1234.82Z" fill="white"/>
</g>
<g filter="url(#filter17_d_18_418)">
<rect x="1406" y="535.808" width="177.496" height="177.496" rx="16" transform="rotate(-6.73241 1406 535.808)" fill="#3A3A3C" fill-opacity="0.75" shape-rendering="crispEdges"/>
<path d="M1484.65 650.378L1476.63 582.486L1502.09 579.481C1507.31 578.865 1511.79 579.254 1515.54 580.649C1519.31 582.041 1522.3 584.266 1524.5 587.323C1526.72 590.355 1528.08 594.037 1528.59 598.369C1529.11 602.723 1528.62 606.611 1527.14 610.035C1525.69 613.434 1523.27 616.218 1519.9 618.386C1516.52 620.533 1512.22 621.914 1507.01 622.53L1488.87 624.67L1487.67 614.46L1504.14 612.515C1507.19 612.155 1509.64 611.44 1511.49 610.371C1513.33 609.279 1514.62 607.861 1515.35 606.116C1516.11 604.346 1516.34 602.257 1516.06 599.848C1515.78 597.439 1515.06 595.44 1513.91 593.85C1512.75 592.239 1511.15 591.106 1509.1 590.451C1507.05 589.775 1504.49 589.618 1501.42 589.98L1490.15 591.311L1496.95 648.926L1484.65 650.378ZM1516.09 615.474L1536.53 644.254L1522.8 645.874L1502.66 617.059L1516.09 615.474Z" fill="white"/>
</g>
<g filter="url(#filter18_d_18_418)">
<mask id="path-57-outside-1_18_418" maskUnits="userSpaceOnUse" x="1504.52" y="657.834" width="86.1963" height="91.4518" fill="black">
<rect fill="white" x="1504.52" y="657.834" width="86.1963" height="91.4518"/>
<path fill-rule="evenodd" clip-rule="evenodd" d="M1569.87 736.68L1563.64 727.201L1559.8 737.868L1539.65 740.246L1539.03 735.025C1538.55 730.902 1521.08 721.314 1521.08 721.314C1518.66 719.924 1516.43 716.573 1516.1 713.766L1513.96 695.617C1513.28 689.848 1517.24 684.639 1522.8 683.982L1524.65 699.651L1529.68 699.057L1526.81 674.684C1526.52 672.279 1528.17 670.109 1530.49 669.835C1535.13 669.288 1539.34 672.741 1539.91 677.549L1539.71 675.81C1539.42 673.404 1541.07 671.235 1543.39 670.961C1548.03 670.414 1552.24 673.867 1552.81 678.674L1552.61 676.935C1552.32 674.53 1553.97 672.36 1556.27 671.9C1560.93 671.54 1565.14 674.992 1565.71 679.8L1565.51 678.061C1565.22 675.656 1566.87 673.486 1569.19 673.212C1573.83 672.665 1578.04 676.118 1578.61 680.926L1581.41 704.7C1581.74 707.47 1581.04 711.776 1579.87 714.345C1579.87 714.345 1573.8 726.741 1574.29 730.865L1574.91 736.085L1569.87 736.68Z"/>
</mask>
<path fill-rule="evenodd" clip-rule="evenodd" d="M1569.87 736.68L1563.64 727.201L1559.8 737.868L1539.65 740.246L1539.03 735.025C1538.55 730.902 1521.08 721.314 1521.08 721.314C1518.66 719.924 1516.43 716.573 1516.1 713.766L1513.96 695.617C1513.28 689.848 1517.24 684.639 1522.8 683.982L1524.65 699.651L1529.68 699.057L1526.81 674.684C1526.52 672.279 1528.17 670.109 1530.49 669.835C1535.13 669.288 1539.34 672.741 1539.91 677.549L1539.71 675.81C1539.42 673.404 1541.07 671.235 1543.39 670.961C1548.03 670.414 1552.24 673.867 1552.81 678.674L1552.61 676.935C1552.32 674.53 1553.97 672.36 1556.27 671.9C1560.93 671.54 1565.14 674.992 1565.71 679.8L1565.51 678.061C1565.22 675.656 1566.87 673.486 1569.19 673.212C1573.83 672.665 1578.04 676.118 1578.61 680.926L1581.41 704.7C1581.74 707.47 1581.04 711.776 1579.87 714.345C1579.87 714.345 1573.8 726.741 1574.29 730.865L1574.91 736.085L1569.87 736.68Z" fill="white"/>
<path d="M1569.87 736.68L1565.63 739.464L1567.35 742.083L1570.46 741.716L1569.87 736.68ZM1563.64 727.201L1567.88 724.417L1562.32 715.94L1558.87 725.481L1563.64 727.201ZM1559.8 737.868L1560.39 742.905L1563.5 742.537L1564.57 739.589L1559.8 737.868ZM1539.65 740.246L1534.61 740.84L1535.21 745.876L1540.25 745.282L1539.65 740.246ZM1539.03 735.025L1534 735.62L1539.03 735.025ZM1521.08 721.314L1518.55 725.711L1518.59 725.736L1518.64 725.76L1521.08 721.314ZM1516.1 713.766L1521.14 713.172L1516.1 713.766ZM1513.96 695.617L1508.92 696.211L1513.96 695.617ZM1522.8 683.982L1527.84 683.388L1527.24 678.351L1522.2 678.946L1522.8 683.982ZM1524.65 699.651L1519.61 700.245L1520.21 705.282L1525.24 704.687L1524.65 699.651ZM1529.68 699.057L1530.28 704.093L1535.31 703.499L1534.72 698.462L1529.68 699.057ZM1539.71 675.81L1544.74 675.215L1539.71 675.81ZM1552.61 676.935L1547.57 677.53L1552.61 676.935ZM1556.27 671.9L1555.88 666.844L1555.57 666.867L1555.27 666.928L1556.27 671.9ZM1578.61 680.926L1583.65 680.332L1578.61 680.926ZM1581.41 704.7L1576.38 705.295L1581.41 704.7ZM1579.87 714.345L1584.42 716.574L1584.46 716.51L1584.49 716.445L1579.87 714.345ZM1574.29 730.865L1569.25 731.46L1574.29 730.865ZM1574.91 736.085L1575.5 741.122L1580.54 740.528L1579.94 735.491L1574.91 736.085ZM1574.11 733.896L1567.88 724.417L1559.41 729.985L1565.63 739.464L1574.11 733.896ZM1558.87 725.481L1555.03 736.148L1564.57 739.589L1568.41 728.922L1558.87 725.481ZM1559.2 732.832L1539.06 735.209L1540.25 745.282L1560.39 742.905L1559.2 732.832ZM1544.69 739.651L1544.07 734.431L1534 735.62L1534.61 740.84L1544.69 739.651ZM1544.07 734.431C1543.84 732.471 1542.77 730.949 1542.09 730.088C1541.29 729.094 1540.32 728.153 1539.34 727.311C1537.39 725.616 1534.94 723.888 1532.66 722.386C1530.35 720.866 1528.07 719.49 1526.37 718.5C1525.53 718.003 1524.82 717.599 1524.32 717.318C1524.07 717.177 1523.87 717.067 1523.74 716.991C1523.67 716.952 1523.61 716.923 1523.58 716.902C1523.56 716.892 1523.54 716.884 1523.53 716.878C1523.53 716.875 1523.52 716.873 1523.52 716.871C1523.52 716.871 1523.52 716.87 1523.52 716.869C1523.52 716.869 1523.52 716.869 1523.52 716.869C1523.52 716.868 1523.51 716.868 1521.08 721.314C1518.64 725.76 1518.64 725.76 1518.64 725.76C1518.64 725.76 1518.64 725.76 1518.64 725.76C1518.64 725.76 1518.64 725.76 1518.64 725.76C1518.64 725.761 1518.64 725.762 1518.64 725.764C1518.65 725.767 1518.66 725.773 1518.67 725.781C1518.7 725.797 1518.75 725.822 1518.81 725.855C1518.93 725.921 1519.1 726.021 1519.33 726.15C1519.79 726.41 1520.45 726.787 1521.25 727.253C1522.85 728.189 1524.97 729.469 1527.09 730.861C1529.23 732.271 1531.25 733.714 1532.7 734.976C1533.44 735.613 1533.91 736.097 1534.16 736.416C1534.52 736.869 1534.11 736.549 1534 735.62L1544.07 734.431ZM1523.6 716.917C1523.25 716.715 1522.63 716.168 1522.04 715.276C1521.45 714.385 1521.19 713.591 1521.14 713.172L1511.06 714.361C1511.35 716.749 1512.36 719.033 1513.57 720.867C1514.78 722.699 1516.48 724.523 1518.55 725.711L1523.6 716.917ZM1521.14 713.172L1518.99 695.022L1508.92 696.211L1511.06 714.361L1521.14 713.172ZM1518.99 695.022C1518.62 691.861 1520.78 689.327 1523.39 689.019L1522.2 678.946C1513.69 679.951 1507.93 687.835 1508.92 696.211L1518.99 695.022ZM1517.76 684.576L1519.61 700.245L1529.68 699.057L1527.84 683.388L1517.76 684.576ZM1525.24 704.687L1530.28 704.093L1529.09 694.02L1524.05 694.615L1525.24 704.687ZM1534.72 698.462L1531.84 674.09L1521.77 675.278L1524.65 699.651L1534.72 698.462ZM1531.84 674.09C1531.86 674.216 1531.82 674.381 1531.71 674.528C1531.6 674.68 1531.38 674.837 1531.09 674.872L1529.9 664.799C1524.63 665.421 1521.18 670.266 1521.77 675.278L1531.84 674.09ZM1531.09 674.872C1532.77 674.673 1534.62 675.943 1534.88 678.143L1544.95 676.954C1544.07 669.54 1537.49 663.903 1529.9 664.799L1531.09 674.872ZM1544.95 676.954L1544.74 675.215L1534.67 676.404L1534.88 678.143L1544.95 676.954ZM1544.74 675.215C1544.76 675.342 1544.72 675.506 1544.61 675.654C1544.5 675.805 1544.28 675.963 1543.99 675.997L1542.8 665.925C1537.52 666.547 1534.08 671.391 1534.67 676.404L1544.74 675.215ZM1543.99 675.997C1545.67 675.799 1547.52 677.068 1547.77 679.269L1557.85 678.08C1556.97 670.665 1550.39 665.029 1542.8 665.925L1543.99 675.997ZM1557.85 678.08L1557.64 676.341L1547.57 677.53L1547.77 679.269L1557.85 678.08ZM1557.64 676.341C1557.66 676.48 1557.61 676.614 1557.55 676.697C1557.5 676.771 1557.4 676.845 1557.26 676.873L1555.27 666.928C1550.45 667.894 1546.97 672.432 1547.57 677.53L1557.64 676.341ZM1556.66 676.956C1558.55 676.81 1560.42 678.239 1560.67 680.394L1570.75 679.206C1569.87 671.746 1563.3 666.269 1555.88 666.844L1556.66 676.956ZM1570.75 679.206L1570.54 677.467L1560.47 678.655L1560.67 680.394L1570.75 679.206ZM1570.54 677.467C1570.56 677.593 1570.52 677.758 1570.41 677.905C1570.29 678.057 1570.07 678.214 1569.78 678.249L1568.59 668.176C1563.32 668.798 1559.88 673.643 1560.47 678.655L1570.54 677.467ZM1569.78 678.249C1571.47 678.05 1573.31 679.32 1573.57 681.52L1583.65 680.332C1582.77 672.917 1576.18 667.28 1568.59 668.176L1569.78 678.249ZM1573.57 681.52L1576.38 705.295L1586.45 704.106L1583.65 680.332L1573.57 681.52ZM1576.38 705.295C1576.47 706.06 1576.43 707.329 1576.2 708.791C1575.96 710.246 1575.59 711.496 1575.25 712.245L1584.49 716.445C1585.31 714.625 1585.88 712.438 1586.21 710.405C1586.54 708.379 1586.69 706.11 1586.45 704.106L1576.38 705.295ZM1579.87 714.345C1575.31 712.116 1575.31 712.116 1575.31 712.117C1575.31 712.117 1575.31 712.117 1575.31 712.118C1575.31 712.119 1575.31 712.12 1575.31 712.121C1575.31 712.123 1575.31 712.127 1575.31 712.131C1575.3 712.139 1575.3 712.15 1575.29 712.163C1575.28 712.191 1575.26 712.23 1575.23 712.281C1575.19 712.381 1575.12 712.525 1575.03 712.709C1574.86 713.075 1574.61 713.598 1574.32 714.237C1573.74 715.509 1572.96 717.263 1572.19 719.164C1571.43 721.048 1570.65 723.165 1570.08 725.144C1569.58 726.898 1569 729.321 1569.25 731.46L1579.33 730.271C1579.33 730.348 1579.33 729.675 1579.83 727.944C1580.26 726.439 1580.9 724.684 1581.6 722.953C1582.29 721.24 1583 719.636 1583.54 718.456C1583.81 717.868 1584.03 717.39 1584.19 717.063C1584.27 716.899 1584.33 716.773 1584.37 716.69C1584.39 716.648 1584.4 716.617 1584.41 716.598C1584.42 716.588 1584.42 716.581 1584.42 716.577C1584.42 716.575 1584.42 716.574 1584.43 716.573C1584.43 716.573 1584.43 716.573 1584.43 716.573C1584.43 716.573 1584.42 716.574 1584.42 716.574C1584.42 716.574 1584.42 716.574 1579.87 714.345ZM1569.25 731.46L1569.87 736.68L1579.94 735.491L1579.33 730.271L1569.25 731.46ZM1574.31 731.049L1569.27 731.643L1570.46 741.716L1575.5 741.122L1574.31 731.049Z" fill="black" mask="url(#path-57-outside-1_18_418)"/>
<path fill-rule="evenodd" clip-rule="evenodd" d="M1544.97 698.766L1550.01 698.172L1552.38 718.317L1547.35 718.912L1544.97 698.766Z" fill="black"/>
<path fill-rule="evenodd" clip-rule="evenodd" d="M1555.04 697.577L1560.08 696.983L1562.46 717.129L1557.42 717.723L1555.04 697.577Z" fill="black"/>
<path fill-rule="evenodd" clip-rule="evenodd" d="M1565.11 696.389L1570.15 695.794L1572.53 715.94L1567.49 716.534L1565.11 696.389Z" fill="black"/>
</g>
<path opacity="0.1" d="M1411.85 -45.0073L1280 219.199L1404.06 -56.699L1411.85 -45.0073Z" fill="white"/>
<path opacity="0.1" d="M1494.2 -46.0441L1380 116.791L1522.19 -47.4088L1494.2 -46.0441Z" fill="white"/>
<path opacity="0.1" d="M1962.53 865.469L1784.91 776L1967.93 892.967L1962.53 865.469Z" fill="white"/>
<path opacity="0.1" d="M2143.18 865.002L1700.52 695L2148.58 892.5L2143.18 865.002Z" fill="white"/>
<path opacity="0.1" d="M2065.82 483.893L1680 483.893L2082.43 506.461L2065.82 483.893Z" fill="white"/>
<path opacity="0.1" d="M507.881 1111.38L723.029 737.274L480 1108.56L507.881 1111.38Z" fill="white"/>
<path opacity="0.1" d="M635.978 1116.36L723.02 825.676L608 1117.94L635.978 1116.36Z" fill="white"/>
<path opacity="0.1" d="M-257.096 841.015L244.512 657.606L-276 820.33L-257.096 841.015Z" fill="white"/>
<path opacity="0.1" d="M-134.005 719.848L150.986 658.49L-151 697.567L-134.005 719.848Z" fill="white"/>
<path opacity="0.1" d="M212.616 -127.308L508.548 186.802L223.37 -153.185L212.616 -127.308Z" fill="white"/>
<path opacity="0.1" d="M0.11983 -122.213L367.81 103.719L3.74289 -150L0.11983 -122.213Z" fill="white"/>
</g>
<defs>
<filter id="filter0_d_18_418" x="228" y="88" width="250.665" height="257.665" filterUnits="userSpaceOnUse" color-interpolation-filters="sRGB">
<feFlood flood-opacity="0" result="BackgroundImageFix"/>
<feColorMatrix in="SourceAlpha" type="matrix" values="0 0 0 0 0 0 0 0 0 0 0 0 0 0 0 0 0 0 127 0" result="hardAlpha"/>
<feOffset dy="24"/>
<feGaussianBlur stdDeviation="8.5"/>
<feComposite in2="hardAlpha" operator="out"/>
<feColorMatrix type="matrix" values="0 0 0 0 0 0 0 0 0 0 0 0 0 0 0 0 0 0 0.6 0"/>
<feBlend mode="normal" in2="BackgroundImageFix" result="effect1_dropShadow_18_418"/>
<feBlend mode="normal" in="SourceGraphic" in2="effect1_dropShadow_18_418" result="shape"/>
</filter>
<filter id="filter1_d_18_418" x="1478" y="97" width="182.62" height="189.62" filterUnits="userSpaceOnUse" color-interpolation-filters="sRGB">
<feFlood flood-opacity="0" result="BackgroundImageFix"/>
<feColorMatrix in="SourceAlpha" type="matrix" values="0 0 0 0 0 0 0 0 0 0 0 0 0 0 0 0 0 0 127 0" result="hardAlpha"/>
<feOffset dy="24"/>
<feGaussianBlur stdDeviation="8.5"/>
<feComposite in2="hardAlpha" operator="out"/>
<feColorMatrix type="matrix" values="0 0 0 0 0 0 0 0 0 0 0 0 0 0 0 0 0 0 0.6 0"/>
<feBlend mode="normal" in2="BackgroundImageFix" result="effect1_dropShadow_18_418"/>
<feBlend mode="normal" in="SourceGraphic" in2="effect1_dropShadow_18_418" result="shape"/>
</filter>
<filter id="filter2_d_18_418" x="1794" y="540" width="182.62" height="189.62" filterUnits="userSpaceOnUse" color-interpolation-filters="sRGB">
<feFlood flood-opacity="0" result="BackgroundImageFix"/>
<feColorMatrix in="SourceAlpha" type="matrix" values="0 0 0 0 0 0 0 0 0 0 0 0 0 0 0 0 0 0 127 0" result="hardAlpha"/>
<feOffset dy="24"/>
<feGaussianBlur stdDeviation="8.5"/>
<feComposite in2="hardAlpha" operator="out"/>
<feColorMatrix type="matrix" values="0 0 0 0 0 0 0 0 0 0 0 0 0 0 0 0 0 0 0.6 0"/>
<feBlend mode="normal" in2="BackgroundImageFix" result="effect1_dropShadow_18_418"/>
<feBlend mode="normal" in="SourceGraphic" in2="effect1_dropShadow_18_418" result="shape"/>
</filter>
<filter id="filter3_d_18_418" x="1465.86" y="774" width="323.245" height="335.244" filterUnits="userSpaceOnUse" color-interpolation-filters="sRGB">
<feFlood flood-opacity="0" result="BackgroundImageFix"/>
<feColorMatrix in="SourceAlpha" type="matrix" values="0 0 0 0 0 0 0 0 0 0 0 0 0 0 0 0 0 0 127 0" result="hardAlpha"/>
<feOffset dy="41.1388"/>
<feGaussianBlur stdDeviation="14.57"/>
<feComposite in2="hardAlpha" operator="out"/>
<feColorMatrix type="matrix" values="0 0 0 0 0 0 0 0 0 0 0 0 0 0 0 0 0 0 0.6 0"/>
<feBlend mode="normal" in2="BackgroundImageFix" result="effect1_dropShadow_18_418"/>
<feBlend mode="normal" in="SourceGraphic" in2="effect1_dropShadow_18_418" result="shape"/>
</filter>
<filter id="filter4_d_18_418" x="923" y="-74" width="182.62" height="189.62" filterUnits="userSpaceOnUse" color-interpolation-filters="sRGB">
<feFlood flood-opacity="0" result="BackgroundImageFix"/>
<feColorMatrix in="SourceAlpha" type="matrix" values="0 0 0 0 0 0 0 0 0 0 0 0 0 0 0 0 0 0 127 0" result="hardAlpha"/>
<feOffset dy="24"/>
<feGaussianBlur stdDeviation="8.5"/>
<feComposite in2="hardAlpha" operator="out"/>
<feColorMatrix type="matrix" values="0 0 0 0 0 0 0 0 0 0 0 0 0 0 0 0 0 0 0.6 0"/>
<feBlend mode="normal" in2="BackgroundImageFix" result="effect1_dropShadow_18_418"/>
<feBlend mode="normal" in="SourceGraphic" in2="effect1_dropShadow_18_418" result="shape"/>
</filter>
<filter id="filter5_d_18_418" x="591" y="-25" width="191.96" height="198.96" filterUnits="userSpaceOnUse" color-interpolation-filters="sRGB">
<feFlood flood-opacity="0" result="BackgroundImageFix"/>
<feColorMatrix in="SourceAlpha" type="matrix" values="0 0 0 0 0 0 0 0 0 0 0 0 0 0 0 0 0 0 127 0" result="hardAlpha"/>
<feOffset dy="24"/>
<feGaussianBlur stdDeviation="8.5"/>
<feComposite in2="hardAlpha" operator="out"/>
<feColorMatrix type="matrix" values="0 0 0 0 0 0 0 0 0 0 0 0 0 0 0 0 0 0 0.6 0"/>
<feBlend mode="normal" in2="BackgroundImageFix" result="effect1_dropShadow_18_418"/>
<feBlend mode="normal" in="SourceGraphic" in2="effect1_dropShadow_18_418" result="shape"/>
</filter>
<filter id="filter6_d_18_418" x="814.729" y="97" width="129.407" height="134.46" filterUnits="userSpaceOnUse" color-interpolation-filters="sRGB">
<feFlood flood-opacity="0" result="BackgroundImageFix"/>
<feColorMatrix in="SourceAlpha" type="matrix" values="0 0 0 0 0 0 0 0 0 0 0 0 0 0 0 0 0 0 127 0" result="hardAlpha"/>
<feOffset dy="17.3233"/>
<feGaussianBlur stdDeviation="6.13535"/>
<feComposite in2="hardAlpha" operator="out"/>
<feColorMatrix type="matrix" values="0 0 0 0 0 0 0 0 0 0 0 0 0 0 0 0 0 0 0.6 0"/>
<feBlend mode="normal" in2="BackgroundImageFix" result="effect1_dropShadow_18_418"/>
<feBlend mode="normal" in="SourceGraphic" in2="effect1_dropShadow_18_418" result="shape"/>
</filter>
<filter id="filter7_d_18_418" x="832" y="743" width="199.197" height="206.197" filterUnits="userSpaceOnUse" color-interpolation-filters="sRGB">
<feFlood flood-opacity="0" result="BackgroundImageFix"/>
<feColorMatrix in="SourceAlpha" type="matrix" values="0 0 0 0 0 0 0 0 0 0 0 0 0 0 0 0 0 0 127 0" result="hardAlpha"/>
<feOffset dy="24"/>
<feGaussianBlur stdDeviation="8.5"/>
<feComposite in2="hardAlpha" operator="out"/>
<feColorMatrix type="matrix" values="0 0 0 0 0 0 0 0 0 0 0 0 0 0 0 0 0 0 0.6 0"/>
<feBlend mode="normal" in2="BackgroundImageFix" result="effect1_dropShadow_18_418"/>
<feBlend mode="normal" in="SourceGraphic" in2="effect1_dropShadow_18_418" result="shape"/>
</filter>
<filter id="filter8_d_18_418" x="110" y="189" width="197.068" height="204.068" filterUnits="userSpaceOnUse" color-interpolation-filters="sRGB">
<feFlood flood-opacity="0" result="BackgroundImageFix"/>
<feColorMatrix in="SourceAlpha" type="matrix" values="0 0 0 0 0 0 0 0 0 0 0 0 0 0 0 0 0 0 127 0" result="hardAlpha"/>
<feOffset dy="24"/>
<feGaussianBlur stdDeviation="8.5"/>
<feComposite in2="hardAlpha" operator="out"/>
<feColorMatrix type="matrix" values="0 0 0 0 0 0 0 0 0 0 0 0 0 0 0 0 0 0 0.6 0"/>
<feBlend mode="normal" in2="BackgroundImageFix" result="effect1_dropShadow_18_418"/>
<feBlend mode="normal" in="SourceGraphic" in2="effect1_dropShadow_18_418" result="shape"/>
</filter>
<filter id="filter9_d_18_418" x="1552" y="280" width="226.13" height="233.13" filterUnits="userSpaceOnUse" color-interpolation-filters="sRGB">
<feFlood flood-opacity="0" result="BackgroundImageFix"/>
<feColorMatrix in="SourceAlpha" type="matrix" values="0 0 0 0 0 0 0 0 0 0 0 0 0 0 0 0 0 0 127 0" result="hardAlpha"/>
<feOffset dy="24"/>
<feGaussianBlur stdDeviation="8.5"/>
<feComposite in2="hardAlpha" operator="out"/>
<feColorMatrix type="matrix" values="0 0 0 0 0 0 0 0 0 0 0 0 0 0 0 0 0 0 0.6 0"/>
<feBlend mode="normal" in2="BackgroundImageFix" result="effect1_dropShadow_18_418"/>
<feBlend mode="normal" in="SourceGraphic" in2="effect1_dropShadow_18_418" result="shape"/>
</filter>
<filter id="filter10_d_18_418" x="1793.59" y="44.5934" width="210.943" height="217.943" filterUnits="userSpaceOnUse" color-interpolation-filters="sRGB">
<feFlood flood-opacity="0" result="BackgroundImageFix"/>
<feColorMatrix in="SourceAlpha" type="matrix" values="0 0 0 0 0 0 0 0 0 0 0 0 0 0 0 0 0 0 127 0" result="hardAlpha"/>
<feOffset dy="24"/>
<feGaussianBlur stdDeviation="8.5"/>
<feComposite in2="hardAlpha" operator="out"/>
<feColorMatrix type="matrix" values="0 0 0 0 0 0 0 0 0 0 0 0 0 0 0 0 0 0 0.6 0"/>
<feBlend mode="normal" in2="BackgroundImageFix" result="effect1_dropShadow_18_418"/>
<feBlend mode="normal" in="SourceGraphic" in2="effect1_dropShadow_18_418" result="shape"/>
</filter>
<filter id="filter11_d_18_418" x="-105" y="56" width="210.943" height="217.943" filterUnits="userSpaceOnUse" color-interpolation-filters="sRGB">
<feFlood flood-opacity="0" result="BackgroundImageFix"/>
<feColorMatrix in="SourceAlpha" type="matrix" values="0 0 0 0 0 0 0 0 0 0 0 0 0 0 0 0 0 0 127 0" result="hardAlpha"/>
<feOffset dy="24"/>
<feGaussianBlur stdDeviation="8.5"/>
<feComposite in2="hardAlpha" operator="out"/>
<feColorMatrix type="matrix" values="0 0 0 0 0 0 0 0 0 0 0 0 0 0 0 0 0 0 0.6 0"/>
<feBlend mode="normal" in2="BackgroundImageFix" result="effect1_dropShadow_18_418"/>
<feBlend mode="normal" in="SourceGraphic" in2="effect1_dropShadow_18_418" result="shape"/>
</filter>
<filter id="filter12_d_18_418" x="-66" y="435" width="241.612" height="248.612" filterUnits="userSpaceOnUse" color-interpolation-filters="sRGB">
<feFlood flood-opacity="0" result="BackgroundImageFix"/>
<feColorMatrix in="SourceAlpha" type="matrix" values="0 0 0 0 0 0 0 0 0 0 0 0 0 0 0 0 0 0 127 0" result="hardAlpha"/>
<feOffset dy="24"/>
<feGaussianBlur stdDeviation="8.5"/>
<feComposite in2="hardAlpha" operator="out"/>
<feColorMatrix type="matrix" values="0 0 0 0 0 0 0 0 0 0 0 0 0 0 0 0 0 0 0.6 0"/>
<feBlend mode="normal" in2="BackgroundImageFix" result="effect1_dropShadow_18_418"/>
<feBlend mode="normal" in="SourceGraphic" in2="effect1_dropShadow_18_418" result="shape"/>
</filter>
<filter id="filter13_d_18_418" x="153.269" y="689.269" width="207.592" height="214.592" filterUnits="userSpaceOnUse" color-interpolation-filters="sRGB">
<feFlood flood-opacity="0" result="BackgroundImageFix"/>
<feColorMatrix in="SourceAlpha" type="matrix" values="0 0 0 0 0 0 0 0 0 0 0 0 0 0 0 0 0 0 127 0" result="hardAlpha"/>
<feOffset dy="24"/>
<feGaussianBlur stdDeviation="8.5"/>
<feComposite in2="hardAlpha" operator="out"/>
<feColorMatrix type="matrix" values="0 0 0 0 0 0 0 0 0 0 0 0 0 0 0 0 0 0 0.6 0"/>
<feBlend mode="normal" in2="BackgroundImageFix" result="effect1_dropShadow_18_418"/>
<feBlend mode="normal" in="SourceGraphic" in2="effect1_dropShadow_18_418" result="shape"/>
</filter>
<filter id="filter14_d_18_418" x="951" y="776" width="297.157" height="304.157" filterUnits="userSpaceOnUse" color-interpolation-filters="sRGB">
<feFlood flood-opacity="0" result="BackgroundImageFix"/>
<feColorMatrix in="SourceAlpha" type="matrix" values="0 0 0 0 0 0 0 0 0 0 0 0 0 0 0 0 0 0 127 0" result="hardAlpha"/>
<feOffset dy="24"/>
<feGaussianBlur stdDeviation="8.5"/>
<feComposite in2="hardAlpha" operator="out"/>
<feColorMatrix type="matrix" values="0 0 0 0 0 0 0 0 0 0 0 0 0 0 0 0 0 0 0.6 0"/>
<feBlend mode="normal" in2="BackgroundImageFix" result="effect1_dropShadow_18_418"/>
<feBlend mode="normal" in="SourceGraphic" in2="effect1_dropShadow_18_418" result="shape"/>
</filter>
<filter id="filter15_d_18_418" x="340" y="760" width="210.947" height="217.947" filterUnits="userSpaceOnUse" color-interpolation-filters="sRGB">
<feFlood flood-opacity="0" result="BackgroundImageFix"/>
<feColorMatrix in="SourceAlpha" type="matrix" values="0 0 0 0 0 0 0 0 0 0 0 0 0 0 0 0 0 0 127 0" result="hardAlpha"/>
<feOffset dy="24"/>
<feGaussianBlur stdDeviation="8.5"/>
<feComposite in2="hardAlpha" operator="out"/>
<feColorMatrix type="matrix" values="0 0 0 0 0 0 0 0 0 0 0 0 0 0 0 0 0 0 0.6 0"/>
<feBlend mode="normal" in2="BackgroundImageFix" result="effect1_dropShadow_18_418"/>
<feBlend mode="normal" in="SourceGraphic" in2="effect1_dropShadow_18_418" result="shape"/>
</filter>
<filter id="filter16_d_18_418" x="330.09" y="269.179" width="1260.23" height="469.098" filterUnits="userSpaceOnUse" color-interpolation-filters="sRGB">
<feFlood flood-opacity="0" result="BackgroundImageFix"/>
<feColorMatrix in="SourceAlpha" type="matrix" values="0 0 0 0 0 0 0 0 0 0 0 0 0 0 0 0 0 0 127 0" result="hardAlpha"/>
<feOffset dy="24.0888"/>
<feGaussianBlur stdDeviation="23.4549"/>
<feComposite in2="hardAlpha" operator="out"/>
<feColorMatrix type="matrix" values="0 0 0 0 0 0 0 0 0 0 0 0 0 0 0 0 0 0 0.2 0"/>
<feBlend mode="normal" in2="BackgroundImageFix" result="effect1_dropShadow_18_418"/>
<feBlend mode="normal" in="SourceGraphic" in2="effect1_dropShadow_18_418" result="shape"/>
</filter>
<filter id="filter17_d_18_418" x="1369.23" y="504.857" width="270.615" height="270.615" filterUnits="userSpaceOnUse" color-interpolation-filters="sRGB">
<feFlood flood-opacity="0" result="BackgroundImageFix"/>
<feColorMatrix in="SourceAlpha" type="matrix" values="0 0 0 0 0 0 0 0 0 0 0 0 0 0 0 0 0 0 127 0" result="hardAlpha"/>
<feOffset dy="26.6245"/>
<feGaussianBlur stdDeviation="18.3836"/>
<feComposite in2="hardAlpha" operator="out"/>
<feColorMatrix type="matrix" values="0 0 0 0 0 0 0 0 0 0 0 0 0 0 0 0 0 0 1 0"/>
<feBlend mode="normal" in2="BackgroundImageFix" result="effect1_dropShadow_18_418"/>
<feBlend mode="normal" in="SourceGraphic" in2="effect1_dropShadow_18_418" result="shape"/>
</filter>
<filter id="filter18_d_18_418" x="1505.01" y="662.17" width="85.3616" height="88.7782" filterUnits="userSpaceOnUse" color-interpolation-filters="sRGB">
<feFlood flood-opacity="0" result="BackgroundImageFix"/>
<feColorMatrix in="SourceAlpha" type="matrix" values="0 0 0 0 0 0 0 0 0 0 0 0 0 0 0 0 0 0 127 0" result="hardAlpha"/>
<feOffset dy="1.26783"/>
<feGaussianBlur stdDeviation="1.90175"/>
<feColorMatrix type="matrix" values="0 0 0 0 0 0 0 0 0 0 0 0 0 0 0 0 0 0 0.4 0"/>
<feBlend mode="normal" in2="BackgroundImageFix" result="effect1_dropShadow_18_418"/>
<feBlend mode="normal" in="SourceGraphic" in2="effect1_dropShadow_18_418" result="shape"/>
</filter>
<clipPath id="clip0_18_418">
<rect width="1920" height="960" fill="white"/>
</clipPath>
</defs>
</svg>
