<svg width="121" height="175" viewBox="0 0 121 175" fill="none" xmlns="http://www.w3.org/2000/svg">
<rect x="0.5" width="120" height="120" rx="12" fill="#9F1818"/>
<path d="M58.253 55.1963L55.6805 59.646L58.253 58.005V55.1963Z" fill="#FBFBFC"/>
<path d="M58.7264 63.1272H62.3039L60.5152 61.9814L58.7264 63.1272Z" fill="#FBFBFC"/>
<path d="M62.8211 55.2031V58.0338L65.4155 59.6972L62.8211 55.2031Z" fill="#FBFBFC"/>
<path d="M58.253 46.334L47.587 64.8273L52.724 61.5382L58.2528 51.9738L58.253 46.334Z" fill="#FBFBFC"/>
<path d="M49.605 68.9669H55.8878V66.1582H53.9952L49.605 68.9669Z" fill="#FBFBFC"/>
<path d="M67.0339 66.1582H64.4912V68.9669H71.4244L67.0339 66.1582Z" fill="#FBFBFC"/>
<path d="M62.8211 51.9731L68.3719 61.5892L73.5164 64.8782L62.8212 46.3408L62.8211 51.9731Z" fill="#FBFBFC"/>
<path d="M67.019 62.4762L61.3425 58.84V41.1742H63.2052V36H57.8688V41.1742H59.7312V58.8099L54.0769 62.4316L43.3006 69.3275H38.9469V74.5018H44.2833V70.6209L53.7811 64.538L55.8881 63.1854L55.9841 63.1262L60.5149 60.2215L67.2557 64.538L76.7241 70.6064V74.5017H82.0531V69.3275H77.7217L67.019 62.4762Z" fill="#FBFBFC"/>
<path d="M56.9228 80.5607V84.0003H63.3901V80.6999L65.4747 75.8035L61.3208 68.6191H60.9278L60.9215 72.3294C61.2025 72.5438 61.38 72.8839 61.38 73.2608C61.38 73.9262 60.8404 74.4584 60.1824 74.4584C59.5245 74.4584 58.9849 73.9262 58.9849 73.2608C58.9849 72.8839 59.1624 72.5438 59.4434 72.3294L59.4497 68.6191H59.059L54.8977 75.8035L56.9228 80.5607Z" fill="#FBFBFC"/>
<path d="M57.3659 68.5977L58.2083 67.1416H62.1702L63.0127 68.5977V64.6064H57.3659L57.3659 68.5977Z" fill="#FBFBFC"/>
<path d="M3.508 167V144.6H13.3C15.732 144.6 17.8653 145.069 19.7 146.008C21.5347 146.947 22.964 148.248 23.988 149.912C25.012 151.576 25.524 153.539 25.524 155.8C25.524 158.04 25.012 160.003 23.988 161.688C22.964 163.352 21.5347 164.653 19.7 165.592C17.8653 166.531 15.732 167 13.3 167H3.508ZM7.668 163.48H13.108C14.7933 163.48 16.244 163.16 17.46 162.52C18.6973 161.88 19.6467 160.984 20.308 159.832C20.9907 158.68 21.332 157.336 21.332 155.8C21.332 154.243 20.9907 152.899 20.308 151.768C19.6467 150.616 18.6973 149.72 17.46 149.08C16.244 148.44 14.7933 148.12 13.108 148.12H7.668V163.48ZM37.5935 167.224C35.6948 167.224 34.0308 166.851 32.6015 166.104C31.1935 165.336 30.0948 164.291 29.3055 162.968C28.5375 161.645 28.1535 160.141 28.1535 158.456C28.1535 156.749 28.5268 155.245 29.2735 153.944C30.0415 152.621 31.0868 151.587 32.4095 150.84C33.7535 150.093 35.2788 149.72 36.9855 149.72C38.6495 149.72 40.1322 150.083 41.4335 150.808C42.7348 151.533 43.7588 152.557 44.5055 153.88C45.2522 155.203 45.6255 156.76 45.6255 158.552C45.6255 158.723 45.6148 158.915 45.5935 159.128C45.5935 159.341 45.5828 159.544 45.5615 159.736H31.3215V157.08H43.4495L41.8815 157.912C41.9028 156.931 41.7002 156.067 41.2735 155.32C40.8468 154.573 40.2602 153.987 39.5135 153.56C38.7882 153.133 37.9455 152.92 36.9855 152.92C36.0042 152.92 35.1402 153.133 34.3935 153.56C33.6682 153.987 33.0922 154.584 32.6655 155.352C32.2602 156.099 32.0575 156.984 32.0575 158.008V158.648C32.0575 159.672 32.2922 160.579 32.7615 161.368C33.2308 162.157 33.8922 162.765 34.7455 163.192C35.5988 163.619 36.5802 163.832 37.6895 163.832C38.6495 163.832 39.5135 163.683 40.2815 163.384C41.0495 163.085 41.7322 162.616 42.3295 161.976L44.4735 164.44C43.7055 165.336 42.7348 166.029 41.5615 166.52C40.4095 166.989 39.0868 167.224 37.5935 167.224ZM50.0118 167V148.952C50.0118 147.16 50.5344 145.731 51.5798 144.664C52.6464 143.576 54.1611 143.032 56.1238 143.032C56.8278 143.032 57.4891 143.107 58.1078 143.256C58.7478 143.405 59.2811 143.64 59.7078 143.96L58.6198 146.968C58.3211 146.733 57.9798 146.563 57.5958 146.456C57.2118 146.328 56.8171 146.264 56.4118 146.264C55.5798 146.264 54.9504 146.499 54.5238 146.968C54.0971 147.416 53.8838 148.099 53.8838 149.016V150.936L54.0118 152.728V167H50.0118ZM47.1958 153.24V150.04H58.5878V153.24H47.1958ZM61.4038 167V149.912H65.4038V167H61.4038ZM63.4198 147.096C62.6731 147.096 62.0544 146.861 61.5638 146.392C61.0944 145.923 60.8598 145.357 60.8598 144.696C60.8598 144.013 61.0944 143.448 61.5638 143C62.0544 142.531 62.6731 142.296 63.4198 142.296C64.1664 142.296 64.7744 142.52 65.2438 142.968C65.7344 143.395 65.9798 143.939 65.9798 144.6C65.9798 145.304 65.7451 145.901 65.2758 146.392C64.8064 146.861 64.1878 147.096 63.4198 147.096ZM80.3513 149.72C81.7166 149.72 82.9326 149.987 83.9993 150.52C85.0873 151.053 85.9406 151.875 86.5593 152.984C87.1779 154.072 87.4873 155.48 87.4873 157.208V167H83.4873V157.72C83.4873 156.205 83.1246 155.075 82.3993 154.328C81.6953 153.581 80.7033 153.208 79.4233 153.208C78.4846 153.208 77.6526 153.4 76.9273 153.784C76.2019 154.168 75.6366 154.744 75.2313 155.512C74.8473 156.259 74.6553 157.208 74.6553 158.36V167H70.6553V149.912H74.4633V154.52L73.7913 153.112C74.3886 152.024 75.2526 151.192 76.3833 150.616C77.5353 150.019 78.8579 149.72 80.3513 149.72ZM100.625 167.224C98.7261 167.224 97.0621 166.851 95.6328 166.104C94.2248 165.336 93.1261 164.291 92.3368 162.968C91.5688 161.645 91.1848 160.141 91.1848 158.456C91.1848 156.749 91.5581 155.245 92.3048 153.944C93.0728 152.621 94.1181 151.587 95.4408 150.84C96.7848 150.093 98.3101 149.72 100.017 149.72C101.681 149.72 103.163 150.083 104.465 150.808C105.766 151.533 106.79 152.557 107.537 153.88C108.283 155.203 108.657 156.76 108.657 158.552C108.657 158.723 108.646 158.915 108.625 159.128C108.625 159.341 108.614 159.544 108.593 159.736H94.3528V157.08H106.481L104.913 157.912C104.934 156.931 104.731 156.067 104.305 155.32C103.878 154.573 103.291 153.987 102.545 153.56C101.819 153.133 100.977 152.92 100.017 152.92C99.0354 152.92 98.1714 153.133 97.4248 153.56C96.6994 153.987 96.1234 154.584 95.6968 155.352C95.2914 156.099 95.0888 156.984 95.0888 158.008V158.648C95.0888 159.672 95.3234 160.579 95.7928 161.368C96.2621 162.157 96.9234 162.765 97.7768 163.192C98.6301 163.619 99.6114 163.832 100.721 163.832C101.681 163.832 102.545 163.683 103.313 163.384C104.081 163.085 104.763 162.616 105.361 161.976L107.505 164.44C106.737 165.336 105.766 166.029 104.593 166.52C103.441 166.989 102.118 167.224 100.625 167.224Z" fill="#13151A"/>
</svg>
