<?xml version="1.0" encoding="utf-8"?>
<!-- Generator: Adobe Illustrator 27.2.0, SVG Export Plug-In . SVG Version: 6.00 Build 0)  -->
<svg version="1.1" id="Layer_1" xmlns="http://www.w3.org/2000/svg" xmlns:xlink="http://www.w3.org/1999/xlink" x="0px" y="0px"
	 viewBox="0 0 200 200" style="enable-background:new 0 0 200 200;" xml:space="preserve">
<style type="text/css">
	.st0{fill:#F2F4F8;stroke:#000000;stroke-width:0.5;stroke-miterlimit:10;}
	.st1{fill:#F1C21B;}
</style>
<path class="st0" d="M137.5,35.7c9,4.6,12.8,18.8,20.5,31.1c7.7,12.4,19.2,22.8,18.6,32.8c-0.7,10.1-13.5,19.7-21.9,30.8
	c-8.4,11.1-12.3,23.7-20.7,25.5c-8.4,1.9-21.2-6.9-30.2-13.6c-8.9-6.6-14.1-11.1-20.5-14.1c-6.4-3-14-4.5-16.2-9
	c-2.2-4.4,1.1-11.8,2.5-18.4c1.3-6.6,0.8-12.4,1.3-19.8s2-16.4,7-23.2c5-6.9,13.6-11.7,25-16.7C114.2,36.2,128.5,31.1,137.5,35.7z"
	/>
<path class="st1" d="M134.2,89.8c2.5,4.5,0.3,11.7-3.3,16.3c-3.7,4.6-8.7,6.7-11.9,5.6c-3.2-1.1-4.4-5.4-6.6-9.2
	c-2.2-3.8-5.2-7-4.6-10.4c0.6-3.5,4.9-7.2,10.8-8C124.4,83.3,131.7,85.3,134.2,89.8z"/>
<path class="st1" d="M136.4,85.2c2.9,5.5,0.4,14.2-3.9,19.7c-4.3,5.6-10.2,8.1-14,6.8c-3.7-1.4-5.2-6.5-7.7-11.1
	c-2.5-4.6-6.1-8.5-5.4-12.6c0.8-4.2,5.8-8.7,12.6-9.7C124.9,77.2,133.4,79.6,136.4,85.2z"/>
</svg>
