<svg width="234" height="106" viewBox="0 0 234 106" fill="none" xmlns="http://www.w3.org/2000/svg">
<path d="M7.928 5.324C8.024 5.444 8.072 5.6 8.072 5.792C8.096 5.96 8.072 6.104 8 6.224C7.88 6.488 7.676 6.584 7.388 6.512C6.884 6.392 6.356 6.344 5.804 6.368C5.252 6.392 4.7 6.608 4.148 7.016C3.596 7.424 3.164 8.024 2.852 8.816C2.54 9.584 2.384 10.388 2.384 11.228C2.384 12.044 2.576 12.752 2.96 13.352C3.368 13.928 3.884 14.348 4.508 14.612C4.892 14.78 5.324 14.876 5.804 14.9C6.284 14.924 6.764 14.912 7.244 14.864C7.748 14.792 8.24 14.696 8.72 14.576C9.2 14.432 9.656 14.276 10.088 14.108C10.232 14.06 10.364 14.072 10.484 14.144C10.628 14.216 10.724 14.312 10.772 14.432C10.892 14.744 10.832 15.056 10.592 15.368C10.304 15.68 9.92 15.956 9.44 16.196C8.96 16.436 8.432 16.628 7.856 16.772C7.28 16.916 6.692 17 6.092 17.024C5.492 17.024 4.928 16.952 4.4 16.808C3.656 16.616 3.02 16.34 2.492 15.98C1.988 15.596 1.568 15.164 1.232 14.684C0.896 14.18 0.644 13.652 0.476 13.1C0.308 12.524 0.212 11.936 0.188 11.336C0.14 9.896 0.416 8.6 1.016 7.448C1.64 6.296 2.504 5.444 3.608 4.892C4.424 4.484 5.24 4.328 6.056 4.424C6.896 4.496 7.52 4.796 7.928 5.324ZM15.875 1.652C15.995 4.268 16.199 6.98 16.487 9.788C16.775 12.572 17.087 15.236 17.423 17.78C17.495 18.836 17.207 19.376 16.559 19.4C16.415 19.4 16.271 19.352 16.127 19.256C15.983 19.136 15.851 18.992 15.731 18.824C15.611 18.656 15.491 18.476 15.371 18.284C15.275 18.092 15.215 17.924 15.191 17.78C14.999 16.556 14.819 15.26 14.651 13.892C14.483 12.524 14.327 11.156 14.183 9.788C14.063 8.396 13.955 7.04 13.859 5.72C13.763 4.4 13.703 3.188 13.679 2.084C13.727 1.508 13.811 1.028 13.931 0.643998C14.051 0.235999 14.303 0.0439994 14.687 0.0679991C15.095 0.0919988 15.383 0.259999 15.551 0.571999C15.743 0.86 15.851 1.22 15.875 1.652ZM26.4224 3.812C26.3744 4.052 26.2064 4.184 25.9184 4.208C25.6304 4.232 25.3904 4.244 25.1984 4.244C24.5984 4.268 23.9744 4.328 23.3264 4.424C22.7024 4.52 22.0424 4.664 21.3464 4.856C21.0584 4.952 20.7464 4.916 20.4104 4.748C20.0744 4.58 19.8704 4.244 19.7984 3.74C19.7984 3.548 19.8704 3.392 20.0144 3.272C20.1584 3.152 20.3264 3.044 20.5184 2.948C20.8304 2.804 21.2024 2.684 21.6344 2.588C22.0664 2.468 22.4984 2.384 22.9304 2.336C23.3864 2.288 23.8184 2.276 24.2264 2.3C24.6344 2.3 24.9704 2.336 25.2344 2.408C25.6184 2.528 25.9184 2.708 26.1344 2.948C26.3744 3.188 26.4704 3.476 26.4224 3.812ZM25.5944 15.8C25.7624 16.184 25.8464 16.604 25.8464 17.06C25.8704 17.492 25.7504 17.792 25.4864 17.96C25.1504 18.176 24.7904 18.164 24.4064 17.924C24.0224 17.684 23.7344 17.36 23.5424 16.952C23.2784 16.448 23.0744 15.836 22.9304 15.116C22.7864 14.372 22.6784 13.64 22.6064 12.92C22.5344 12.2 22.4864 11.528 22.4624 10.904C22.4624 10.28 22.4624 9.812 22.4624 9.5C22.4864 9.164 22.5824 8.852 22.7504 8.564C22.9184 8.276 23.1344 8.108 23.3984 8.06C23.8304 8.084 24.1784 8.288 24.4424 8.672C24.7064 9.032 24.8264 9.488 24.8024 10.04C24.8024 10.472 24.8144 10.952 24.8384 11.48C24.8624 12.008 24.9104 12.536 24.9824 13.064C25.0544 13.592 25.1384 14.108 25.2344 14.612C25.3304 15.092 25.4504 15.488 25.5944 15.8ZM37.3732 9.248C37.2052 9.344 37.0012 9.38 36.7612 9.356C36.5212 9.308 36.3172 9.152 36.1492 8.888C35.7652 8.384 35.2972 8.132 34.7452 8.132C34.2412 8.132 33.7852 8.252 33.3772 8.492C32.9932 8.708 32.6452 9.008 32.3332 9.392C32.0452 9.752 31.8052 10.16 31.6132 10.616C31.4212 11.072 31.2892 11.528 31.2172 11.984C31.0972 12.824 31.2412 13.532 31.6492 14.108C32.0572 14.684 32.6932 14.972 33.5572 14.972C34.2532 14.996 35.0332 14.864 35.8972 14.576C36.7852 14.264 37.6132 13.868 38.3812 13.388C38.7172 13.244 39.0292 13.16 39.3172 13.136C39.6052 13.112 39.8452 13.256 40.0372 13.568C40.2772 13.952 40.2172 14.348 39.8572 14.756C39.4972 15.14 39.0172 15.488 38.4172 15.8C37.8172 16.136 37.1812 16.436 36.5092 16.7C35.8612 16.94 35.2012 17.12 34.5292 17.24C33.8572 17.336 33.1852 17.336 32.5132 17.24C31.8652 17.144 31.2532 16.916 30.6772 16.556C29.7652 15.932 29.2132 15.044 29.0212 13.892C28.8292 12.74 28.9132 11.552 29.2732 10.328C29.4172 9.872 29.6212 9.416 29.8852 8.96C30.1492 8.48 30.4612 8.048 30.8212 7.664C31.2052 7.28 31.6252 6.956 32.0812 6.692C32.5372 6.404 33.0412 6.212 33.5932 6.116C34.4812 5.972 35.3332 6.068 36.1492 6.404C36.9652 6.716 37.5052 7.304 37.7692 8.168C37.8172 8.36 37.8172 8.564 37.7692 8.78C37.7212 8.972 37.5892 9.128 37.3732 9.248ZM52.0362 6.728C52.1322 6.704 52.2762 6.692 52.4682 6.692C52.6602 6.668 52.8402 6.68 53.0082 6.728C53.2002 6.752 53.3562 6.812 53.4762 6.908C53.6202 6.98 53.7042 7.076 53.7282 7.196C53.7762 7.484 53.7282 7.748 53.5842 7.988C53.4642 8.204 53.2362 8.396 52.9002 8.564C51.9882 8.996 51.0402 9.488 50.0562 10.04C49.0722 10.568 48.2322 11.048 47.5362 11.48C47.9682 11.768 48.4602 12.092 49.0122 12.452C49.5882 12.812 50.1762 13.196 50.7762 13.604C51.3762 13.988 51.9762 14.408 52.5762 14.864C53.1762 15.296 53.7402 15.728 54.2682 16.16C54.7482 16.568 54.8322 16.94 54.5202 17.276C54.3762 17.444 54.1362 17.564 53.8002 17.636C53.4882 17.708 53.1882 17.672 52.9002 17.528C52.3722 17.264 51.7962 16.952 51.1722 16.592C50.5482 16.208 49.9122 15.824 49.2642 15.44C48.6162 15.032 47.9802 14.636 47.3562 14.252C46.7562 13.844 46.2042 13.472 45.7002 13.136C45.7962 13.976 45.8802 14.816 45.9522 15.656C46.0482 16.496 46.1322 17.336 46.2042 18.176C46.3482 18.632 46.3362 19.004 46.1682 19.292C46.0002 19.58 45.7242 19.712 45.3402 19.688C44.9322 19.616 44.6322 19.46 44.4402 19.22C44.2482 18.956 44.1042 18.62 44.0082 18.212C43.8642 17.228 43.6962 16.064 43.5042 14.72C43.3362 13.376 43.1562 11.984 42.9642 10.544C42.7722 9.104 42.5802 7.7 42.3882 6.332C42.2202 4.964 42.0642 3.752 41.9202 2.696C41.8722 2.36 41.8362 2 41.8122 1.616C41.8122 1.208 41.9442 0.943999 42.2082 0.823998C42.5682 0.679998 42.9402 0.763999 43.3242 1.076C43.7082 1.364 43.9962 1.808 44.1882 2.408C44.3802 3.512 44.5722 4.712 44.7642 6.008C44.9562 7.304 45.1482 8.672 45.3402 10.112C45.8202 9.824 46.3722 9.512 46.9962 9.176C47.6442 8.816 48.2802 8.48 48.9042 8.168C49.5522 7.832 50.1522 7.532 50.7042 7.268C51.2562 7.004 51.7002 6.824 52.0362 6.728ZM75.131 5.936C75.851 6.2 76.451 6.596 76.931 7.124C77.435 7.652 77.819 8.252 78.083 8.924C78.347 9.572 78.491 10.244 78.515 10.94C78.563 11.636 78.491 12.284 78.299 12.884C78.035 13.556 77.699 14.216 77.291 14.864C76.883 15.512 76.415 16.088 75.887 16.592C75.359 17.096 74.759 17.504 74.087 17.816C73.415 18.128 72.671 18.284 71.855 18.284C70.871 18.284 70.043 18.056 69.371 17.6C68.699 17.144 68.171 16.556 67.787 15.836C67.403 15.116 67.151 14.3 67.031 13.388C66.935 12.476 66.959 11.564 67.103 10.652C67.199 9.98 67.355 9.332 67.571 8.708C67.811 8.06 68.111 7.496 68.471 7.016C68.831 6.512 69.239 6.104 69.695 5.792C70.175 5.48 70.715 5.324 71.315 5.324C71.651 5.324 72.071 5.396 72.575 5.54C73.079 5.66 73.547 5.84 73.979 6.08C74.291 5.792 74.675 5.744 75.131 5.936ZM73.763 8.564C73.499 8.396 73.187 8.18 72.827 7.916C72.491 7.628 72.191 7.484 71.927 7.484C71.639 7.484 71.351 7.616 71.063 7.88C70.799 8.144 70.559 8.456 70.343 8.816C70.151 9.152 69.983 9.5 69.839 9.86C69.695 10.22 69.599 10.508 69.551 10.724C69.479 11.084 69.431 11.516 69.407 12.02C69.383 12.524 69.419 13.028 69.515 13.532C69.611 14.012 69.791 14.456 70.055 14.864C70.343 15.248 70.763 15.524 71.315 15.692C71.651 15.788 72.047 15.788 72.503 15.692C72.959 15.572 73.403 15.368 73.835 15.08C74.291 14.792 74.711 14.408 75.095 13.928C75.503 13.448 75.815 12.896 76.031 12.272C76.271 11.576 76.271 10.856 76.031 10.112C75.815 9.344 75.359 8.792 74.663 8.456C74.495 8.576 74.327 8.636 74.159 8.636C73.991 8.636 73.859 8.612 73.763 8.564ZM83.7097 6.62C83.7817 6.98 83.8537 7.388 83.9257 7.844C84.0217 8.276 84.1177 8.732 84.2137 9.212C84.3097 9.668 84.3937 10.136 84.4657 10.616C84.5377 11.096 84.5977 11.552 84.6457 11.984C84.9337 11.36 85.2457 10.7 85.5817 10.004C85.9177 9.308 86.2777 8.672 86.6617 8.096C87.0697 7.496 87.4897 7.004 87.9217 6.62C88.3777 6.236 88.8697 6.044 89.3977 6.044C90.1897 6.044 90.8497 6.332 91.3777 6.908C91.9297 7.484 92.3857 8.204 92.7457 9.068C93.1297 9.908 93.4297 10.796 93.6457 11.732C93.8617 12.668 94.0417 13.496 94.1857 14.216C94.3297 14.864 94.0417 15.344 93.3217 15.656C92.9857 15.824 92.7337 15.848 92.5657 15.728C92.3977 15.608 92.3017 15.488 92.2777 15.368C92.1577 15.08 92.0017 14.576 91.8097 13.856C91.6417 13.136 91.4377 12.404 91.1977 11.66C90.9817 10.916 90.7297 10.268 90.4417 9.716C90.1537 9.164 89.8297 8.912 89.4697 8.96C89.0377 8.984 88.6537 9.308 88.3177 9.932C88.0297 10.436 87.7297 11 87.4177 11.624C87.1297 12.224 86.8417 12.848 86.5537 13.496C86.2657 14.12 85.9777 14.756 85.6897 15.404C85.4257 16.028 85.1737 16.604 84.9337 17.132C84.7657 17.3 84.5497 17.42 84.2857 17.492C84.0457 17.54 83.7937 17.516 83.5297 17.42C83.2897 17.348 83.0977 17.228 82.9537 17.06C82.8097 16.892 82.7377 16.724 82.7377 16.556C82.5217 14.684 82.2937 12.98 82.0537 11.444C81.8377 9.908 81.5497 8.336 81.1897 6.728C81.0217 6.176 80.9857 5.744 81.0817 5.432C81.2017 5.096 81.5617 4.964 82.1617 5.036C83.0017 5.18 83.5177 5.708 83.7097 6.62ZM115.753 5.18C115.849 5.852 115.921 6.572 115.969 7.34C116.041 8.084 116.089 8.84 116.113 9.608C116.161 10.376 116.185 11.12 116.185 11.84C116.185 12.56 116.173 13.208 116.149 13.784C116.917 14.312 117.373 14.78 117.517 15.188C117.685 15.596 117.709 15.956 117.589 16.268C117.445 16.7 117.181 16.928 116.797 16.952C116.437 16.952 116.017 16.82 115.537 16.556C115.201 16.796 114.817 17.06 114.385 17.348C113.953 17.612 113.497 17.876 113.017 18.14C112.537 18.38 112.057 18.596 111.577 18.788C111.097 18.98 110.653 19.112 110.245 19.184C109.477 19.304 108.781 19.16 108.157 18.752C107.557 18.344 107.149 17.732 106.933 16.916C106.789 16.364 106.753 15.8 106.825 15.224C106.897 14.624 107.077 14.06 107.365 13.532C107.653 12.98 108.037 12.488 108.517 12.056C109.021 11.624 109.609 11.288 110.281 11.048C110.449 10.976 110.677 10.916 110.965 10.868C111.277 10.82 111.589 10.808 111.901 10.832C112.237 10.832 112.573 10.892 112.909 11.012C113.245 11.132 113.557 11.336 113.845 11.624C113.845 11.216 113.833 10.772 113.809 10.292C113.809 9.788 113.797 9.284 113.773 8.78C113.749 8.276 113.713 7.808 113.665 7.376C113.641 6.92 113.605 6.536 113.557 6.224C113.509 5.864 113.365 5.648 113.125 5.576C112.909 5.48 112.633 5.492 112.297 5.612C111.721 5.804 111.049 6.176 110.281 6.728C109.513 7.28 108.781 7.868 108.085 8.492C107.869 8.708 107.617 8.804 107.329 8.78C107.065 8.756 106.837 8.648 106.645 8.456C106.453 8.264 106.345 8.048 106.321 7.808C106.297 7.544 106.393 7.268 106.609 6.98C107.017 6.548 107.473 6.104 107.977 5.648C108.481 5.192 109.009 4.784 109.561 4.424C110.113 4.04 110.677 3.728 111.253 3.488C111.829 3.248 112.405 3.116 112.981 3.092C113.821 3.068 114.469 3.26 114.925 3.668C115.381 4.052 115.657 4.556 115.753 5.18ZM111.577 12.92C111.265 12.992 110.929 13.148 110.569 13.388C110.233 13.604 109.921 13.88 109.633 14.216C109.369 14.528 109.165 14.888 109.021 15.296C108.901 15.68 108.901 16.064 109.021 16.448C109.069 16.592 109.165 16.7 109.309 16.772C109.477 16.844 109.657 16.856 109.849 16.808C110.425 16.688 111.073 16.46 111.793 16.124C112.537 15.764 113.125 15.38 113.557 14.972C113.557 14.828 113.485 14.648 113.341 14.432C113.197 14.192 113.029 13.964 112.837 13.748C112.645 13.508 112.429 13.304 112.189 13.136C111.973 12.968 111.769 12.896 111.577 12.92ZM121.995 6.62C122.067 6.98 122.139 7.388 122.211 7.844C122.307 8.276 122.403 8.732 122.499 9.212C122.595 9.668 122.679 10.136 122.751 10.616C122.823 11.096 122.883 11.552 122.931 11.984C123.219 11.36 123.531 10.7 123.867 10.004C124.203 9.308 124.563 8.672 124.947 8.096C125.355 7.496 125.775 7.004 126.207 6.62C126.663 6.236 127.155 6.044 127.683 6.044C128.475 6.044 129.135 6.332 129.663 6.908C130.215 7.484 130.671 8.204 131.031 9.068C131.415 9.908 131.715 10.796 131.931 11.732C132.147 12.668 132.327 13.496 132.471 14.216C132.615 14.864 132.327 15.344 131.607 15.656C131.271 15.824 131.019 15.848 130.851 15.728C130.683 15.608 130.587 15.488 130.563 15.368C130.443 15.08 130.287 14.576 130.095 13.856C129.927 13.136 129.723 12.404 129.483 11.66C129.267 10.916 129.015 10.268 128.727 9.716C128.439 9.164 128.115 8.912 127.755 8.96C127.323 8.984 126.939 9.308 126.603 9.932C126.315 10.436 126.015 11 125.703 11.624C125.415 12.224 125.127 12.848 124.839 13.496C124.551 14.12 124.263 14.756 123.975 15.404C123.711 16.028 123.459 16.604 123.219 17.132C123.051 17.3 122.835 17.42 122.571 17.492C122.331 17.54 122.079 17.516 121.815 17.42C121.575 17.348 121.383 17.228 121.239 17.06C121.095 16.892 121.023 16.724 121.023 16.556C120.807 14.684 120.579 12.98 120.339 11.444C120.123 9.908 119.835 8.336 119.475 6.728C119.307 6.176 119.271 5.744 119.367 5.432C119.487 5.096 119.847 4.964 120.447 5.036C121.287 5.18 121.803 5.708 121.995 6.62ZM151.087 3.812C151.039 4.052 150.871 4.184 150.583 4.208C150.295 4.232 150.055 4.244 149.863 4.244C149.263 4.268 148.639 4.328 147.991 4.424C147.367 4.52 146.707 4.664 146.011 4.856C145.723 4.952 145.411 4.916 145.075 4.748C144.739 4.58 144.535 4.244 144.463 3.74C144.463 3.548 144.535 3.392 144.679 3.272C144.823 3.152 144.991 3.044 145.183 2.948C145.495 2.804 145.867 2.684 146.299 2.588C146.731 2.468 147.163 2.384 147.595 2.336C148.051 2.288 148.483 2.276 148.891 2.3C149.299 2.3 149.635 2.336 149.899 2.408C150.283 2.528 150.583 2.708 150.799 2.948C151.039 3.188 151.135 3.476 151.087 3.812ZM150.259 15.8C150.427 16.184 150.511 16.604 150.511 17.06C150.535 17.492 150.415 17.792 150.151 17.96C149.815 18.176 149.455 18.164 149.071 17.924C148.687 17.684 148.399 17.36 148.207 16.952C147.943 16.448 147.739 15.836 147.595 15.116C147.451 14.372 147.343 13.64 147.271 12.92C147.199 12.2 147.151 11.528 147.127 10.904C147.127 10.28 147.127 9.812 147.127 9.5C147.151 9.164 147.247 8.852 147.415 8.564C147.583 8.276 147.799 8.108 148.062 8.06C148.495 8.084 148.843 8.288 149.107 8.672C149.371 9.032 149.491 9.488 149.467 10.04C149.467 10.472 149.479 10.952 149.503 11.48C149.527 12.008 149.575 12.536 149.647 13.064C149.719 13.592 149.803 14.108 149.899 14.612C149.995 15.092 150.115 15.488 150.259 15.8ZM162.037 9.248C161.869 9.344 161.665 9.38 161.425 9.356C161.185 9.308 160.981 9.152 160.813 8.888C160.429 8.384 159.961 8.132 159.409 8.132C158.905 8.132 158.449 8.252 158.041 8.492C157.657 8.708 157.309 9.008 156.997 9.392C156.709 9.752 156.469 10.16 156.277 10.616C156.085 11.072 155.953 11.528 155.881 11.984C155.761 12.824 155.905 13.532 156.313 14.108C156.721 14.684 157.357 14.972 158.221 14.972C158.917 14.996 159.697 14.864 160.561 14.576C161.449 14.264 162.277 13.868 163.045 13.388C163.381 13.244 163.693 13.16 163.981 13.136C164.269 13.112 164.509 13.256 164.701 13.568C164.941 13.952 164.881 14.348 164.521 14.756C164.161 15.14 163.681 15.488 163.081 15.8C162.481 16.136 161.845 16.436 161.173 16.7C160.525 16.94 159.865 17.12 159.193 17.24C158.521 17.336 157.849 17.336 157.177 17.24C156.529 17.144 155.917 16.916 155.341 16.556C154.429 15.932 153.877 15.044 153.685 13.892C153.493 12.74 153.577 11.552 153.937 10.328C154.081 9.872 154.285 9.416 154.549 8.96C154.813 8.48 155.125 8.048 155.485 7.664C155.869 7.28 156.289 6.956 156.745 6.692C157.201 6.404 157.705 6.212 158.257 6.116C159.145 5.972 159.997 6.068 160.813 6.404C161.629 6.716 162.169 7.304 162.433 8.168C162.481 8.36 162.481 8.564 162.433 8.78C162.385 8.972 162.253 9.128 162.037 9.248ZM175.08 5.936C175.8 6.2 176.4 6.596 176.88 7.124C177.384 7.652 177.768 8.252 178.032 8.924C178.296 9.572 178.44 10.244 178.464 10.94C178.512 11.636 178.44 12.284 178.248 12.884C177.984 13.556 177.648 14.216 177.24 14.864C176.832 15.512 176.364 16.088 175.836 16.592C175.308 17.096 174.708 17.504 174.036 17.816C173.364 18.128 172.62 18.284 171.804 18.284C170.82 18.284 169.992 18.056 169.32 17.6C168.648 17.144 168.12 16.556 167.736 15.836C167.352 15.116 167.1 14.3 166.98 13.388C166.884 12.476 166.908 11.564 167.052 10.652C167.148 9.98 167.304 9.332 167.52 8.708C167.76 8.06 168.06 7.496 168.42 7.016C168.78 6.512 169.188 6.104 169.644 5.792C170.124 5.48 170.664 5.324 171.264 5.324C171.6 5.324 172.02 5.396 172.524 5.54C173.028 5.66 173.496 5.84 173.928 6.08C174.24 5.792 174.624 5.744 175.08 5.936ZM173.712 8.564C173.448 8.396 173.136 8.18 172.776 7.916C172.44 7.628 172.14 7.484 171.876 7.484C171.588 7.484 171.3 7.616 171.012 7.88C170.748 8.144 170.508 8.456 170.292 8.816C170.1 9.152 169.932 9.5 169.788 9.86C169.644 10.22 169.548 10.508 169.5 10.724C169.428 11.084 169.38 11.516 169.356 12.02C169.332 12.524 169.368 13.028 169.464 13.532C169.56 14.012 169.74 14.456 170.004 14.864C170.292 15.248 170.712 15.524 171.264 15.692C171.6 15.788 171.996 15.788 172.452 15.692C172.908 15.572 173.352 15.368 173.784 15.08C174.24 14.792 174.66 14.408 175.044 13.928C175.452 13.448 175.764 12.896 175.98 12.272C176.22 11.576 176.22 10.856 175.98 10.112C175.764 9.344 175.308 8.792 174.612 8.456C174.444 8.576 174.276 8.636 174.108 8.636C173.94 8.636 173.808 8.612 173.712 8.564ZM183.659 6.62C183.731 6.98 183.803 7.388 183.875 7.844C183.971 8.276 184.067 8.732 184.163 9.212C184.259 9.668 184.343 10.136 184.415 10.616C184.487 11.096 184.547 11.552 184.595 11.984C184.883 11.36 185.195 10.7 185.531 10.004C185.867 9.308 186.227 8.672 186.611 8.096C187.019 7.496 187.439 7.004 187.871 6.62C188.327 6.236 188.819 6.044 189.347 6.044C190.139 6.044 190.799 6.332 191.327 6.908C191.879 7.484 192.335 8.204 192.695 9.068C193.079 9.908 193.379 10.796 193.595 11.732C193.811 12.668 193.991 13.496 194.135 14.216C194.279 14.864 193.991 15.344 193.271 15.656C192.935 15.824 192.683 15.848 192.515 15.728C192.347 15.608 192.251 15.488 192.227 15.368C192.107 15.08 191.951 14.576 191.759 13.856C191.591 13.136 191.387 12.404 191.147 11.66C190.931 10.916 190.679 10.268 190.391 9.716C190.103 9.164 189.779 8.912 189.419 8.96C188.987 8.984 188.603 9.308 188.267 9.932C187.979 10.436 187.679 11 187.367 11.624C187.079 12.224 186.791 12.848 186.503 13.496C186.215 14.12 185.927 14.756 185.639 15.404C185.375 16.028 185.123 16.604 184.883 17.132C184.715 17.3 184.499 17.42 184.235 17.492C183.995 17.54 183.743 17.516 183.479 17.42C183.239 17.348 183.047 17.228 182.903 17.06C182.759 16.892 182.687 16.724 182.687 16.556C182.471 14.684 182.243 12.98 182.003 11.444C181.787 9.908 181.499 8.336 181.139 6.728C180.971 6.176 180.935 5.744 181.031 5.432C181.151 5.096 181.511 4.964 182.111 5.036C182.951 5.18 183.467 5.708 183.659 6.62ZM214.875 8.852C215.331 8.828 215.787 8.936 216.243 9.176C216.699 9.416 216.927 9.788 216.927 10.292C216.879 10.7 216.651 10.964 216.243 11.084C215.859 11.18 215.547 11.228 215.307 11.228C214.827 11.228 214.311 11.24 213.759 11.264C213.207 11.288 212.643 11.324 212.067 11.372C212.019 12.164 211.971 12.908 211.923 13.604C211.899 14.3 211.875 14.924 211.851 15.476C211.827 16.004 211.815 16.436 211.815 16.772C211.815 17.108 211.827 17.288 211.851 17.312C212.379 17.216 212.943 17.06 213.543 16.844C214.167 16.604 214.779 16.352 215.379 16.088C216.003 15.8 216.603 15.512 217.179 15.224C217.779 14.912 218.343 14.624 218.871 14.36C219.111 14.24 219.327 14.204 219.519 14.252C219.735 14.3 219.867 14.408 219.915 14.576C219.963 14.84 219.927 15.164 219.807 15.548C219.687 15.932 219.471 16.28 219.159 16.592C218.799 16.88 218.319 17.216 217.719 17.6C217.143 17.96 216.519 18.308 215.847 18.644C215.175 18.98 214.491 19.28 213.795 19.544C213.123 19.784 212.523 19.928 211.995 19.976C211.203 20.048 210.603 19.832 210.195 19.328C209.787 18.824 209.559 18.188 209.511 17.42C209.463 16.652 209.451 15.764 209.475 14.756C209.523 13.748 209.571 12.68 209.619 11.552C209.163 11.6 208.719 11.648 208.287 11.696C207.879 11.72 207.483 11.756 207.099 11.804C206.787 11.804 206.439 11.732 206.055 11.588C205.695 11.444 205.515 11.168 205.515 10.76C205.515 10.616 205.575 10.424 205.695 10.184C205.815 9.944 206.079 9.764 206.487 9.644C207.471 9.476 208.563 9.332 209.763 9.212C209.835 8.084 209.919 6.992 210.015 5.936C210.111 4.88 210.195 3.92 210.267 3.056C210.291 2.768 210.375 2.516 210.519 2.3C210.663 2.084 210.819 1.976 210.987 1.976C211.395 1.952 211.779 2.06 212.139 2.3C212.523 2.516 212.715 2.768 212.715 3.056C212.619 3.872 212.523 4.796 212.427 5.828C212.355 6.86 212.283 7.916 212.211 8.996C212.691 8.948 213.147 8.924 213.579 8.924C214.035 8.9 214.467 8.876 214.875 8.852ZM229.678 5.936C230.398 6.2 230.998 6.596 231.478 7.124C231.982 7.652 232.366 8.252 232.63 8.924C232.894 9.572 233.038 10.244 233.062 10.94C233.11 11.636 233.038 12.284 232.846 12.884C232.582 13.556 232.246 14.216 231.838 14.864C231.43 15.512 230.962 16.088 230.434 16.592C229.906 17.096 229.306 17.504 228.634 17.816C227.962 18.128 227.218 18.284 226.402 18.284C225.418 18.284 224.59 18.056 223.918 17.6C223.246 17.144 222.718 16.556 222.334 15.836C221.95 15.116 221.698 14.3 221.578 13.388C221.482 12.476 221.506 11.564 221.65 10.652C221.746 9.98 221.902 9.332 222.118 8.708C222.358 8.06 222.658 7.496 223.018 7.016C223.378 6.512 223.786 6.104 224.242 5.792C224.722 5.48 225.262 5.324 225.862 5.324C226.198 5.324 226.618 5.396 227.122 5.54C227.626 5.66 228.094 5.84 228.526 6.08C228.838 5.792 229.222 5.744 229.678 5.936ZM228.31 8.564C228.046 8.396 227.734 8.18 227.374 7.916C227.038 7.628 226.738 7.484 226.474 7.484C226.186 7.484 225.898 7.616 225.61 7.88C225.346 8.144 225.106 8.456 224.89 8.816C224.698 9.152 224.53 9.5 224.386 9.86C224.242 10.22 224.146 10.508 224.098 10.724C224.026 11.084 223.978 11.516 223.954 12.02C223.93 12.524 223.966 13.028 224.062 13.532C224.158 14.012 224.338 14.456 224.602 14.864C224.89 15.248 225.31 15.524 225.862 15.692C226.198 15.788 226.594 15.788 227.05 15.692C227.506 15.572 227.95 15.368 228.382 15.08C228.838 14.792 229.258 14.408 229.642 13.928C230.05 13.448 230.362 12.896 230.578 12.272C230.818 11.576 230.818 10.856 230.578 10.112C230.362 9.344 229.906 8.792 229.21 8.456C229.042 8.576 228.874 8.636 228.706 8.636C228.538 8.636 228.406 8.612 228.31 8.564ZM2.78 47.62C2.852 47.98 2.924 48.388 2.996 48.844C3.092 49.276 3.188 49.732 3.284 50.212C3.38 50.668 3.464 51.136 3.536 51.616C3.608 52.096 3.668 52.552 3.716 52.984C4.004 52.36 4.316 51.7 4.652 51.004C4.988 50.308 5.348 49.672 5.732 49.096C6.14 48.496 6.56 48.004 6.992 47.62C7.448 47.236 7.94 47.044 8.468 47.044C9.26 47.044 9.92 47.332 10.448 47.908C11 48.484 11.456 49.204 11.816 50.068C12.2 50.908 12.5 51.796 12.716 52.732C12.932 53.668 13.112 54.496 13.256 55.216C13.4 55.864 13.112 56.344 12.392 56.656C12.056 56.824 11.804 56.848 11.636 56.728C11.468 56.608 11.372 56.488 11.348 56.368C11.228 56.08 11.072 55.576 10.88 54.856C10.712 54.136 10.508 53.404 10.268 52.66C10.052 51.916 9.8 51.268 9.512 50.716C9.224 50.164 8.9 49.912 8.54 49.96C8.108 49.984 7.724 50.308 7.388 50.932C7.1 51.436 6.8 52 6.488 52.624C6.2 53.224 5.912 53.848 5.624 54.496C5.336 55.12 5.048 55.756 4.76 56.404C4.496 57.028 4.244 57.604 4.004 58.132C3.836 58.3 3.62 58.42 3.356 58.492C3.116 58.54 2.864 58.516 2.6 58.42C2.36 58.348 2.168 58.228 2.024 58.06C1.88 57.892 1.808 57.724 1.808 57.556C1.592 55.684 1.364 53.98 1.124 52.444C0.908 50.908 0.62 49.336 0.26 47.728C0.092 47.176 0.056 46.744 0.152 46.432C0.272 46.096 0.632 45.964 1.232 46.036C2.072 46.18 2.588 46.708 2.78 47.62ZM24.7338 46.18C24.8298 46.852 24.9018 47.572 24.9498 48.34C25.0218 49.084 25.0698 49.84 25.0938 50.608C25.1418 51.376 25.1658 52.12 25.1658 52.84C25.1658 53.56 25.1538 54.208 25.1298 54.784C25.8978 55.312 26.3538 55.78 26.4978 56.188C26.6658 56.596 26.6898 56.956 26.5698 57.268C26.4258 57.7 26.1618 57.928 25.7778 57.952C25.4178 57.952 24.9978 57.82 24.5178 57.556C24.1818 57.796 23.7978 58.06 23.3658 58.348C22.9338 58.612 22.4778 58.876 21.9978 59.14C21.5178 59.38 21.0378 59.596 20.5578 59.788C20.0778 59.98 19.6338 60.112 19.2258 60.184C18.4578 60.304 17.7618 60.16 17.1378 59.752C16.5378 59.344 16.1298 58.732 15.9138 57.916C15.7698 57.364 15.7338 56.8 15.8058 56.224C15.8778 55.624 16.0578 55.06 16.3458 54.532C16.6338 53.98 17.0178 53.488 17.4978 53.056C18.0018 52.624 18.5898 52.288 19.2618 52.048C19.4298 51.976 19.6578 51.916 19.9458 51.868C20.2578 51.82 20.5698 51.808 20.8818 51.832C21.2178 51.832 21.5538 51.892 21.8898 52.012C22.2258 52.132 22.5378 52.336 22.8258 52.624C22.8258 52.216 22.8138 51.772 22.7898 51.292C22.7898 50.788 22.7778 50.284 22.7538 49.78C22.7298 49.276 22.6938 48.808 22.6458 48.376C22.6218 47.92 22.5858 47.536 22.5378 47.224C22.4898 46.864 22.3458 46.648 22.1058 46.576C21.8898 46.48 21.6138 46.492 21.2778 46.612C20.7018 46.804 20.0298 47.176 19.2618 47.728C18.4938 48.28 17.7618 48.868 17.0658 49.492C16.8498 49.708 16.5978 49.804 16.3098 49.78C16.0458 49.756 15.8178 49.648 15.6258 49.456C15.4338 49.264 15.3258 49.048 15.3018 48.808C15.2778 48.544 15.3738 48.268 15.5898 47.98C15.9978 47.548 16.4538 47.104 16.9578 46.648C17.4618 46.192 17.9898 45.784 18.5418 45.424C19.0938 45.04 19.6578 44.728 20.2338 44.488C20.8098 44.248 21.3858 44.116 21.9618 44.092C22.8018 44.068 23.4498 44.26 23.9058 44.668C24.3618 45.052 24.6378 45.556 24.7338 46.18ZM20.5578 53.92C20.2458 53.992 19.9098 54.148 19.5498 54.388C19.2138 54.604 18.9018 54.88 18.6138 55.216C18.3498 55.528 18.1458 55.888 18.0018 56.296C17.8818 56.68 17.8818 57.064 18.0018 57.448C18.0498 57.592 18.1458 57.7 18.2898 57.772C18.4578 57.844 18.6378 57.856 18.8298 57.808C19.4058 57.688 20.0538 57.46 20.7738 57.124C21.5178 56.764 22.1058 56.38 22.5378 55.972C22.5378 55.828 22.4658 55.648 22.3218 55.432C22.1778 55.192 22.0098 54.964 21.8178 54.748C21.6258 54.508 21.4098 54.304 21.1698 54.136C20.9538 53.968 20.7498 53.896 20.5578 53.92ZM40.8033 46.432C40.4193 47.08 40.0353 47.716 39.6513 48.34C39.2673 48.964 38.8473 49.684 38.3913 50.5C37.9593 51.292 37.4553 52.216 36.8793 53.272C36.3033 54.328 35.6313 55.612 34.8633 57.124C34.6713 57.484 34.4793 57.772 34.2873 57.988C34.0953 58.204 33.8673 58.312 33.6033 58.312C33.2433 58.312 32.9553 58.216 32.7393 58.024C32.5473 57.808 32.3793 57.58 32.2353 57.34C31.4433 56.02 30.6633 54.556 29.8953 52.948C29.1273 51.34 28.5033 49.768 28.0233 48.232C27.9753 48.112 27.9753 47.98 28.0233 47.836C28.0953 47.668 28.1913 47.56 28.3113 47.512C28.5513 47.392 28.8633 47.38 29.2473 47.476C29.5353 47.596 29.8233 47.812 30.1113 48.124C30.3993 48.436 30.6273 48.76 30.7953 49.096C30.9393 49.432 31.1073 49.816 31.2993 50.248C31.4913 50.68 31.6953 51.148 31.9113 51.652C32.1513 52.132 32.3913 52.612 32.6313 53.092C32.8713 53.572 33.1113 54.004 33.3513 54.388C33.7593 53.668 34.1913 52.9 34.6473 52.084C35.1273 51.244 35.6073 50.404 36.0873 49.564C36.5673 48.7 37.0473 47.872 37.5273 47.08C38.0313 46.288 38.5233 45.58 39.0033 44.956C39.1233 44.788 39.2913 44.692 39.5073 44.668C39.7233 44.644 39.9633 44.728 40.2273 44.92C40.8273 45.376 41.0193 45.88 40.8033 46.432ZM49.274 44.812C49.226 45.052 49.058 45.184 48.77 45.208C48.482 45.232 48.242 45.244 48.05 45.244C47.45 45.268 46.826 45.328 46.178 45.424C45.554 45.52 44.894 45.664 44.198 45.856C43.91 45.952 43.598 45.916 43.262 45.748C42.926 45.58 42.722 45.244 42.65 44.74C42.65 44.548 42.722 44.392 42.866 44.272C43.01 44.152 43.178 44.044 43.37 43.948C43.682 43.804 44.054 43.684 44.486 43.588C44.918 43.468 45.35 43.384 45.782 43.336C46.238 43.288 46.67 43.276 47.078 43.3C47.486 43.3 47.822 43.336 48.086 43.408C48.47 43.528 48.77 43.708 48.986 43.948C49.226 44.188 49.322 44.476 49.274 44.812ZM48.446 56.8C48.614 57.184 48.698 57.604 48.698 58.06C48.722 58.492 48.602 58.792 48.338 58.96C48.002 59.176 47.642 59.164 47.258 58.924C46.874 58.684 46.586 58.36 46.394 57.952C46.13 57.448 45.926 56.836 45.782 56.116C45.638 55.372 45.53 54.64 45.458 53.92C45.386 53.2 45.338 52.528 45.314 51.904C45.314 51.28 45.314 50.812 45.314 50.5C45.338 50.164 45.434 49.852 45.602 49.564C45.77 49.276 45.986 49.108 46.25 49.06C46.682 49.084 47.03 49.288 47.294 49.672C47.558 50.032 47.678 50.488 47.654 51.04C47.654 51.472 47.666 51.952 47.69 52.48C47.714 53.008 47.762 53.536 47.834 54.064C47.906 54.592 47.99 55.108 48.086 55.612C48.182 56.092 48.302 56.488 48.446 56.8ZM58.4968 49.564C58.6888 49.828 58.8688 50.164 59.0368 50.572C59.2288 50.956 59.3728 51.352 59.4688 51.76C59.6128 52.408 59.7688 53.116 59.9368 53.884C60.1288 54.628 60.3088 55.408 60.4768 56.224C60.6688 57.04 60.8368 57.868 60.9808 58.708C61.1488 59.548 61.2928 60.352 61.4128 61.12C61.5568 62.176 61.4728 63.184 61.1608 64.144C60.8728 65.128 60.3808 66.004 59.6848 66.772C58.9888 67.54 58.1248 68.152 57.0928 68.608C56.0608 69.064 54.8968 69.316 53.6008 69.364C53.3128 69.34 53.0128 69.196 52.7008 68.932C52.3888 68.692 52.2328 68.44 52.2328 68.176C52.2088 67.912 52.3288 67.696 52.5928 67.528C52.8808 67.384 53.1688 67.288 53.4568 67.24C53.9608 67.192 54.4768 67.084 55.0048 66.916C55.5568 66.772 56.0728 66.556 56.5528 66.268C57.0328 65.98 57.4648 65.632 57.8488 65.224C58.2568 64.816 58.5688 64.336 58.7848 63.784C58.9528 63.352 59.0368 62.824 59.0368 62.2C59.0368 61.552 58.9888 60.916 58.8928 60.292C58.8208 59.668 58.7128 59.08 58.5688 58.528C58.4488 57.952 58.3408 57.52 58.2448 57.232C58.0768 57.4 57.8608 57.58 57.5968 57.772C57.3568 57.964 57.0808 58.144 56.7688 58.312C56.4568 58.48 56.1088 58.612 55.7248 58.708C55.3648 58.804 54.9928 58.84 54.6088 58.816C54.2008 58.792 53.8168 58.648 53.4568 58.384C53.1208 58.12 52.8208 57.784 52.5568 57.376C52.2928 56.944 52.0768 56.452 51.9088 55.9C51.7648 55.348 51.6928 54.772 51.6928 54.172C51.7408 52.732 52.1008 51.46 52.7728 50.356C53.4688 49.228 54.5728 48.352 56.0848 47.728C56.2048 47.704 56.3608 47.68 56.5528 47.656C56.7688 47.632 56.9848 47.632 57.2008 47.656C57.4168 47.656 57.6208 47.68 57.8128 47.728C58.0288 47.776 58.2088 47.848 58.3528 47.944C58.6168 48.136 58.7488 48.412 58.7488 48.772C58.7488 49.132 58.6648 49.396 58.4968 49.564ZM53.9608 54.496C53.9608 54.76 53.9848 55.06 54.0328 55.396C54.0808 55.708 54.2368 55.936 54.5008 56.08C54.7888 56.248 55.1368 56.272 55.5448 56.152C55.9768 56.032 56.3728 55.828 56.7328 55.54C57.0688 55.276 57.2848 54.988 57.3808 54.676C57.5008 54.34 57.5008 53.896 57.3808 53.344C57.2608 52.792 57.1288 52.216 56.9848 51.616C56.8408 51.016 56.7448 50.476 56.6968 49.996C56.4088 50.14 56.0968 50.344 55.7607 50.608C55.4488 50.872 55.1608 51.208 54.8968 51.616C54.6328 52 54.4048 52.432 54.2128 52.912C54.0448 53.392 53.9608 53.92 53.9608 54.496ZM73.144 46.18C73.24 46.852 73.312 47.572 73.36 48.34C73.432 49.084 73.48 49.84 73.504 50.608C73.552 51.376 73.576 52.12 73.576 52.84C73.576 53.56 73.564 54.208 73.54 54.784C74.308 55.312 74.764 55.78 74.908 56.188C75.076 56.596 75.1 56.956 74.98 57.268C74.836 57.7 74.572 57.928 74.188 57.952C73.828 57.952 73.408 57.82 72.928 57.556C72.592 57.796 72.208 58.06 71.776 58.348C71.344 58.612 70.888 58.876 70.408 59.14C69.928 59.38 69.448 59.596 68.968 59.788C68.488 59.98 68.044 60.112 67.636 60.184C66.868 60.304 66.172 60.16 65.548 59.752C64.948 59.344 64.54 58.732 64.324 57.916C64.18 57.364 64.144 56.8 64.216 56.224C64.288 55.624 64.468 55.06 64.756 54.532C65.044 53.98 65.428 53.488 65.908 53.056C66.412 52.624 67 52.288 67.672 52.048C67.84 51.976 68.068 51.916 68.356 51.868C68.668 51.82 68.98 51.808 69.292 51.832C69.628 51.832 69.964 51.892 70.3 52.012C70.636 52.132 70.948 52.336 71.236 52.624C71.236 52.216 71.224 51.772 71.2 51.292C71.2 50.788 71.188 50.284 71.164 49.78C71.14 49.276 71.104 48.808 71.056 48.376C71.032 47.92 70.996 47.536 70.948 47.224C70.9 46.864 70.756 46.648 70.516 46.576C70.3 46.48 70.024 46.492 69.688 46.612C69.112 46.804 68.44 47.176 67.672 47.728C66.904 48.28 66.172 48.868 65.476 49.492C65.26 49.708 65.008 49.804 64.72 49.78C64.456 49.756 64.228 49.648 64.036 49.456C63.844 49.264 63.736 49.048 63.712 48.808C63.688 48.544 63.784 48.268 64 47.98C64.408 47.548 64.864 47.104 65.368 46.648C65.872 46.192 66.4 45.784 66.952 45.424C67.504 45.04 68.068 44.728 68.644 44.488C69.22 44.248 69.796 44.116 70.372 44.092C71.212 44.068 71.86 44.26 72.316 44.668C72.772 45.052 73.048 45.556 73.144 46.18ZM68.968 53.92C68.656 53.992 68.32 54.148 67.96 54.388C67.624 54.604 67.312 54.88 67.024 55.216C66.76 55.528 66.556 55.888 66.412 56.296C66.292 56.68 66.292 57.064 66.412 57.448C66.46 57.592 66.556 57.7 66.7 57.772C66.868 57.844 67.048 57.856 67.24 57.808C67.816 57.688 68.464 57.46 69.184 57.124C69.928 56.764 70.516 56.38 70.948 55.972C70.948 55.828 70.876 55.648 70.732 55.432C70.588 55.192 70.42 54.964 70.228 54.748C70.036 54.508 69.82 54.304 69.58 54.136C69.364 53.968 69.16 53.896 68.968 53.92ZM85.2535 49.852C85.7095 49.828 86.1655 49.936 86.6215 50.176C87.0775 50.416 87.3055 50.788 87.3055 51.292C87.2575 51.7 87.0295 51.964 86.6215 52.084C86.2375 52.18 85.9255 52.228 85.6855 52.228C85.2055 52.228 84.6895 52.24 84.1375 52.264C83.5855 52.288 83.0215 52.324 82.4455 52.372C82.3975 53.164 82.3495 53.908 82.3015 54.604C82.2775 55.3 82.2535 55.924 82.2295 56.476C82.2055 57.004 82.1935 57.436 82.1935 57.772C82.1935 58.108 82.2055 58.288 82.2295 58.312C82.7575 58.216 83.3215 58.06 83.9215 57.844C84.5455 57.604 85.1575 57.352 85.7575 57.088C86.3815 56.8 86.9815 56.512 87.5575 56.224C88.1575 55.912 88.7215 55.624 89.2495 55.36C89.4895 55.24 89.7055 55.204 89.8975 55.252C90.1135 55.3 90.2455 55.408 90.2935 55.576C90.3415 55.84 90.3055 56.164 90.1855 56.548C90.0655 56.932 89.8495 57.28 89.5375 57.592C89.1775 57.88 88.6975 58.216 88.0975 58.6C87.5215 58.96 86.8975 59.308 86.2255 59.644C85.5535 59.98 84.8695 60.28 84.1735 60.544C83.5015 60.784 82.9015 60.928 82.3735 60.976C81.5815 61.048 80.9815 60.832 80.5735 60.328C80.1655 59.824 79.9375 59.188 79.8895 58.42C79.8415 57.652 79.8295 56.764 79.8535 55.756C79.9015 54.748 79.9495 53.68 79.9975 52.552C79.5415 52.6 79.0975 52.648 78.6655 52.696C78.2575 52.72 77.8615 52.756 77.4775 52.804C77.1655 52.804 76.8175 52.732 76.4335 52.588C76.0735 52.444 75.8935 52.168 75.8935 51.76C75.8935 51.616 75.9535 51.424 76.0735 51.184C76.1935 50.944 76.4575 50.764 76.8655 50.644C77.8495 50.476 78.9415 50.332 80.1415 50.212C80.2135 49.084 80.2975 47.992 80.3935 46.936C80.4895 45.88 80.5735 44.92 80.6455 44.056C80.6695 43.768 80.7535 43.516 80.8975 43.3C81.0415 43.084 81.1975 42.976 81.3655 42.976C81.7735 42.952 82.1575 43.06 82.5175 43.3C82.9015 43.516 83.0935 43.768 83.0935 44.056C82.9975 44.872 82.9015 45.796 82.8055 46.828C82.7335 47.86 82.6615 48.916 82.5895 49.996C83.0695 49.948 83.5255 49.924 83.9575 49.924C84.4135 49.9 84.8455 49.876 85.2535 49.852ZM100.489 51.04C99.5528 51.592 98.5448 52.024 97.4648 52.336C96.3848 52.624 95.2208 52.768 93.9728 52.768C94.0208 53.608 94.2608 54.28 94.6928 54.784C95.1248 55.264 95.6648 55.552 96.3128 55.648C96.6968 55.696 97.0808 55.684 97.4648 55.612C97.8728 55.54 98.2448 55.432 98.5808 55.288C98.9408 55.12 99.2648 54.94 99.5528 54.748C99.8408 54.556 100.093 54.364 100.309 54.172C100.525 53.98 100.753 53.86 100.993 53.812C101.233 53.74 101.413 53.728 101.533 53.776C101.869 53.896 101.989 54.256 101.893 54.856C101.509 55.624 100.957 56.284 100.237 56.836C99.5168 57.364 98.7128 57.7 97.8248 57.844C97.0568 57.988 96.2648 57.952 95.4488 57.736C94.6328 57.52 93.9008 57.1 93.2528 56.476C92.7008 55.924 92.2808 55.276 91.9928 54.532C91.7048 53.788 91.5248 53.02 91.4528 52.228C91.3808 51.484 91.4408 50.776 91.6328 50.104C91.8488 49.432 92.1728 48.844 92.6048 48.34C93.0368 47.812 93.5768 47.38 94.2248 47.044C94.8728 46.708 95.6288 46.516 96.4928 46.468C97.5248 46.396 98.4608 46.588 99.3008 47.044C100.141 47.5 100.729 48.136 101.065 48.952C101.257 49.408 101.305 49.804 101.209 50.14C101.137 50.476 100.897 50.776 100.489 51.04ZM96.3488 48.592C96.1088 48.64 95.8448 48.724 95.5568 48.844C95.2928 48.964 95.0408 49.12 94.8008 49.312C94.5848 49.48 94.3808 49.684 94.1888 49.924C94.0208 50.14 93.9248 50.392 93.9008 50.68C94.3088 50.68 94.7528 50.644 95.2328 50.572C95.7368 50.5 96.2168 50.416 96.6728 50.32C97.1528 50.2 97.5848 50.068 97.9688 49.924C98.3768 49.78 98.7128 49.624 98.9768 49.456C98.7848 49 98.4248 48.724 97.8968 48.628C97.3928 48.508 96.8768 48.496 96.3488 48.592ZM122.66 49.852C123.116 49.828 123.572 49.936 124.028 50.176C124.484 50.416 124.712 50.788 124.712 51.292C124.664 51.7 124.436 51.964 124.028 52.084C123.644 52.18 123.332 52.228 123.092 52.228C122.612 52.228 122.096 52.24 121.544 52.264C120.992 52.288 120.428 52.324 119.852 52.372C119.804 53.164 119.756 53.908 119.708 54.604C119.684 55.3 119.66 55.924 119.636 56.476C119.612 57.004 119.6 57.436 119.6 57.772C119.6 58.108 119.612 58.288 119.636 58.312C120.164 58.216 120.728 58.06 121.328 57.844C121.952 57.604 122.564 57.352 123.164 57.088C123.788 56.8 124.388 56.512 124.964 56.224C125.564 55.912 126.128 55.624 126.656 55.36C126.896 55.24 127.112 55.204 127.304 55.252C127.52 55.3 127.652 55.408 127.7 55.576C127.748 55.84 127.712 56.164 127.592 56.548C127.472 56.932 127.256 57.28 126.944 57.592C126.584 57.88 126.104 58.216 125.504 58.6C124.928 58.96 124.304 59.308 123.632 59.644C122.96 59.98 122.276 60.28 121.58 60.544C120.908 60.784 120.308 60.928 119.78 60.976C118.988 61.048 118.388 60.832 117.98 60.328C117.572 59.824 117.344 59.188 117.296 58.42C117.248 57.652 117.236 56.764 117.26 55.756C117.308 54.748 117.356 53.68 117.404 52.552C116.948 52.6 116.504 52.648 116.072 52.696C115.664 52.72 115.268 52.756 114.884 52.804C114.572 52.804 114.224 52.732 113.84 52.588C113.48 52.444 113.3 52.168 113.3 51.76C113.3 51.616 113.36 51.424 113.48 51.184C113.6 50.944 113.864 50.764 114.272 50.644C115.256 50.476 116.348 50.332 117.548 50.212C117.62 49.084 117.704 47.992 117.8 46.936C117.896 45.88 117.98 44.92 118.052 44.056C118.076 43.768 118.16 43.516 118.304 43.3C118.448 43.084 118.604 42.976 118.772 42.976C119.18 42.952 119.564 43.06 119.924 43.3C120.308 43.516 120.5 43.768 120.5 44.056C120.404 44.872 120.308 45.796 120.212 46.828C120.14 47.86 120.068 48.916 119.996 49.996C120.476 49.948 120.932 49.924 121.364 49.924C121.82 49.9 122.252 49.876 122.66 49.852ZM137.463 46.936C138.183 47.2 138.783 47.596 139.263 48.124C139.767 48.652 140.151 49.252 140.415 49.924C140.679 50.572 140.823 51.244 140.847 51.94C140.895 52.636 140.823 53.284 140.631 53.884C140.367 54.556 140.031 55.216 139.623 55.864C139.215 56.512 138.747 57.088 138.219 57.592C137.691 58.096 137.091 58.504 136.419 58.816C135.747 59.128 135.003 59.284 134.187 59.284C133.203 59.284 132.375 59.056 131.703 58.6C131.031 58.144 130.503 57.556 130.119 56.836C129.735 56.116 129.483 55.3 129.363 54.388C129.267 53.476 129.291 52.564 129.435 51.652C129.531 50.98 129.687 50.332 129.903 49.708C130.143 49.06 130.443 48.496 130.803 48.016C131.163 47.512 131.571 47.104 132.027 46.792C132.507 46.48 133.047 46.324 133.647 46.324C133.983 46.324 134.403 46.396 134.907 46.54C135.411 46.66 135.879 46.84 136.311 47.08C136.623 46.792 137.007 46.744 137.463 46.936ZM136.095 49.564C135.831 49.396 135.519 49.18 135.159 48.916C134.823 48.628 134.523 48.484 134.259 48.484C133.971 48.484 133.683 48.616 133.395 48.88C133.131 49.144 132.891 49.456 132.675 49.816C132.483 50.152 132.315 50.5 132.171 50.86C132.027 51.22 131.931 51.508 131.883 51.724C131.811 52.084 131.763 52.516 131.739 53.02C131.715 53.524 131.751 54.028 131.847 54.532C131.943 55.012 132.123 55.456 132.387 55.864C132.675 56.248 133.095 56.524 133.647 56.692C133.983 56.788 134.379 56.788 134.835 56.692C135.291 56.572 135.735 56.368 136.167 56.08C136.623 55.792 137.043 55.408 137.427 54.928C137.835 54.448 138.147 53.896 138.363 53.272C138.603 52.576 138.603 51.856 138.363 51.112C138.147 50.344 137.691 49.792 136.995 49.456C136.827 49.576 136.659 49.636 136.491 49.636C136.323 49.636 136.191 49.612 136.095 49.564ZM162 49.852C162.456 49.828 162.912 49.936 163.368 50.176C163.824 50.416 164.052 50.788 164.052 51.292C164.004 51.7 163.776 51.964 163.368 52.084C162.984 52.18 162.672 52.228 162.432 52.228C161.952 52.228 161.436 52.24 160.884 52.264C160.332 52.288 159.768 52.324 159.192 52.372C159.144 53.164 159.096 53.908 159.048 54.604C159.024 55.3 159 55.924 158.976 56.476C158.952 57.004 158.94 57.436 158.94 57.772C158.94 58.108 158.952 58.288 158.976 58.312C159.504 58.216 160.068 58.06 160.668 57.844C161.292 57.604 161.904 57.352 162.504 57.088C163.128 56.8 163.728 56.512 164.304 56.224C164.904 55.912 165.468 55.624 165.996 55.36C166.236 55.24 166.452 55.204 166.644 55.252C166.86 55.3 166.992 55.408 167.04 55.576C167.088 55.84 167.052 56.164 166.932 56.548C166.812 56.932 166.596 57.28 166.284 57.592C165.924 57.88 165.444 58.216 164.844 58.6C164.268 58.96 163.644 59.308 162.972 59.644C162.3 59.98 161.616 60.28 160.92 60.544C160.248 60.784 159.648 60.928 159.12 60.976C158.328 61.048 157.728 60.832 157.32 60.328C156.912 59.824 156.684 59.188 156.636 58.42C156.588 57.652 156.576 56.764 156.6 55.756C156.648 54.748 156.696 53.68 156.744 52.552C156.288 52.6 155.844 52.648 155.412 52.696C155.004 52.72 154.608 52.756 154.224 52.804C153.912 52.804 153.564 52.732 153.18 52.588C152.82 52.444 152.64 52.168 152.64 51.76C152.64 51.616 152.7 51.424 152.82 51.184C152.94 50.944 153.204 50.764 153.612 50.644C154.596 50.476 155.688 50.332 156.888 50.212C156.96 49.084 157.044 47.992 157.14 46.936C157.236 45.88 157.32 44.92 157.392 44.056C157.416 43.768 157.5 43.516 157.644 43.3C157.788 43.084 157.944 42.976 158.112 42.976C158.52 42.952 158.904 43.06 159.264 43.3C159.648 43.516 159.84 43.768 159.84 44.056C159.744 44.872 159.648 45.796 159.552 46.828C159.48 47.86 159.408 48.916 159.336 49.996C159.816 49.948 160.272 49.924 160.704 49.924C161.16 49.9 161.592 49.876 162 49.852ZM171.043 43.552C171.043 44.128 171.031 44.776 171.007 45.496C171.007 46.216 171.007 46.96 171.007 47.728C171.031 48.496 171.043 49.288 171.043 50.104C171.067 50.92 171.091 51.7 171.115 52.444C171.355 51.964 171.643 51.496 171.979 51.04C172.315 50.56 172.687 50.14 173.095 49.78C173.527 49.42 173.971 49.132 174.427 48.916C174.907 48.7 175.423 48.592 175.975 48.592C176.575 48.592 177.103 48.784 177.559 49.168C178.039 49.552 178.447 50.068 178.783 50.716C179.143 51.34 179.443 52.048 179.683 52.84C179.923 53.608 180.115 54.4 180.259 55.216C180.427 56.008 180.547 56.776 180.619 57.52C180.691 58.24 180.751 58.864 180.799 59.392C180.799 59.776 180.703 60.088 180.511 60.328C180.319 60.568 180.091 60.688 179.827 60.688C179.635 60.688 179.395 60.568 179.107 60.328C178.843 60.064 178.651 59.752 178.531 59.392C178.459 59.104 178.387 58.684 178.315 58.132C178.243 57.58 178.159 56.992 178.063 56.368C177.967 55.72 177.847 55.072 177.703 54.424C177.559 53.776 177.379 53.2 177.163 52.696C176.971 52.168 176.731 51.76 176.443 51.472C176.155 51.184 175.819 51.076 175.435 51.148C174.835 51.268 174.307 51.688 173.851 52.408C173.419 53.128 173.035 53.944 172.699 54.856C172.387 55.768 172.123 56.692 171.907 57.628C171.715 58.564 171.571 59.32 171.475 59.896C171.379 60.328 171.247 60.628 171.079 60.796C170.935 60.94 170.767 61.012 170.575 61.012C170.383 61.012 170.203 60.916 170.035 60.724C169.891 60.532 169.747 60.304 169.603 60.04C169.483 59.752 169.375 59.464 169.279 59.176C169.183 58.864 169.123 58.6 169.099 58.384C168.979 57.088 168.883 55.852 168.811 54.676C168.739 53.476 168.679 52.276 168.631 51.076C168.607 49.876 168.595 48.652 168.595 47.404C168.595 46.132 168.619 44.776 168.667 43.336C168.667 42.136 169.099 41.596 169.963 41.716C170.251 41.764 170.503 41.98 170.719 42.364C170.935 42.724 171.043 43.12 171.043 43.552ZM192.394 46.18C192.49 46.852 192.562 47.572 192.61 48.34C192.682 49.084 192.73 49.84 192.754 50.608C192.802 51.376 192.826 52.12 192.826 52.84C192.826 53.56 192.814 54.208 192.79 54.784C193.558 55.312 194.014 55.78 194.158 56.188C194.326 56.596 194.35 56.956 194.23 57.268C194.086 57.7 193.822 57.928 193.438 57.952C193.078 57.952 192.658 57.82 192.178 57.556C191.842 57.796 191.458 58.06 191.026 58.348C190.594 58.612 190.138 58.876 189.658 59.14C189.178 59.38 188.698 59.596 188.218 59.788C187.738 59.98 187.294 60.112 186.886 60.184C186.118 60.304 185.422 60.16 184.798 59.752C184.198 59.344 183.79 58.732 183.574 57.916C183.43 57.364 183.394 56.8 183.466 56.224C183.538 55.624 183.718 55.06 184.006 54.532C184.294 53.98 184.678 53.488 185.158 53.056C185.662 52.624 186.25 52.288 186.922 52.048C187.09 51.976 187.318 51.916 187.606 51.868C187.918 51.82 188.23 51.808 188.542 51.832C188.878 51.832 189.214 51.892 189.55 52.012C189.886 52.132 190.198 52.336 190.486 52.624C190.486 52.216 190.474 51.772 190.45 51.292C190.45 50.788 190.438 50.284 190.414 49.78C190.39 49.276 190.354 48.808 190.306 48.376C190.282 47.92 190.246 47.536 190.198 47.224C190.15 46.864 190.006 46.648 189.766 46.576C189.55 46.48 189.274 46.492 188.938 46.612C188.362 46.804 187.69 47.176 186.922 47.728C186.154 48.28 185.422 48.868 184.726 49.492C184.51 49.708 184.258 49.804 183.97 49.78C183.706 49.756 183.478 49.648 183.286 49.456C183.094 49.264 182.986 49.048 182.962 48.808C182.938 48.544 183.034 48.268 183.25 47.98C183.658 47.548 184.114 47.104 184.618 46.648C185.122 46.192 185.65 45.784 186.202 45.424C186.754 45.04 187.318 44.728 187.894 44.488C188.47 44.248 189.046 44.116 189.622 44.092C190.462 44.068 191.11 44.26 191.566 44.668C192.022 45.052 192.298 45.556 192.394 46.18ZM188.218 53.92C187.906 53.992 187.57 54.148 187.21 54.388C186.874 54.604 186.562 54.88 186.274 55.216C186.01 55.528 185.806 55.888 185.662 56.296C185.542 56.68 185.542 57.064 185.662 57.448C185.71 57.592 185.806 57.7 185.95 57.772C186.118 57.844 186.298 57.856 186.49 57.808C187.066 57.688 187.714 57.46 188.434 57.124C189.178 56.764 189.766 56.38 190.198 55.972C190.198 55.828 190.126 55.648 189.982 55.432C189.838 55.192 189.67 54.964 189.478 54.748C189.286 54.508 189.07 54.304 188.83 54.136C188.614 53.968 188.41 53.896 188.218 53.92ZM204.503 49.852C204.959 49.828 205.415 49.936 205.871 50.176C206.327 50.416 206.555 50.788 206.555 51.292C206.507 51.7 206.279 51.964 205.871 52.084C205.487 52.18 205.175 52.228 204.935 52.228C204.455 52.228 203.939 52.24 203.387 52.264C202.835 52.288 202.271 52.324 201.695 52.372C201.647 53.164 201.599 53.908 201.551 54.604C201.527 55.3 201.503 55.924 201.479 56.476C201.455 57.004 201.443 57.436 201.443 57.772C201.443 58.108 201.455 58.288 201.479 58.312C202.007 58.216 202.571 58.06 203.171 57.844C203.795 57.604 204.407 57.352 205.007 57.088C205.631 56.8 206.231 56.512 206.807 56.224C207.407 55.912 207.971 55.624 208.499 55.36C208.739 55.24 208.955 55.204 209.147 55.252C209.363 55.3 209.495 55.408 209.543 55.576C209.591 55.84 209.555 56.164 209.435 56.548C209.315 56.932 209.099 57.28 208.787 57.592C208.427 57.88 207.947 58.216 207.347 58.6C206.771 58.96 206.147 59.308 205.475 59.644C204.803 59.98 204.119 60.28 203.423 60.544C202.751 60.784 202.151 60.928 201.623 60.976C200.831 61.048 200.231 60.832 199.823 60.328C199.415 59.824 199.187 59.188 199.139 58.42C199.091 57.652 199.079 56.764 199.103 55.756C199.151 54.748 199.199 53.68 199.247 52.552C198.791 52.6 198.347 52.648 197.915 52.696C197.507 52.72 197.111 52.756 196.727 52.804C196.415 52.804 196.067 52.732 195.683 52.588C195.323 52.444 195.143 52.168 195.143 51.76C195.143 51.616 195.203 51.424 195.323 51.184C195.443 50.944 195.707 50.764 196.115 50.644C197.099 50.476 198.191 50.332 199.391 50.212C199.463 49.084 199.547 47.992 199.643 46.936C199.739 45.88 199.823 44.92 199.895 44.056C199.919 43.768 200.003 43.516 200.147 43.3C200.291 43.084 200.447 42.976 200.615 42.976C201.023 42.952 201.407 43.06 201.767 43.3C202.151 43.516 202.343 43.768 202.343 44.056C202.247 44.872 202.151 45.796 202.055 46.828C201.983 47.86 201.911 48.916 201.839 49.996C202.319 49.948 202.775 49.924 203.207 49.924C203.663 49.9 204.095 49.876 204.503 49.852ZM8.756 91.248C8.588 91.344 8.384 91.38 8.144 91.356C7.904 91.308 7.7 91.152 7.532 90.888C7.148 90.384 6.68 90.132 6.128 90.132C5.624 90.132 5.168 90.252 4.76 90.492C4.376 90.708 4.028 91.008 3.716 91.392C3.428 91.752 3.188 92.16 2.996 92.616C2.804 93.072 2.672 93.528 2.6 93.984C2.48 94.824 2.624 95.532 3.032 96.108C3.44 96.684 4.076 96.972 4.94 96.972C5.636 96.996 6.416 96.864 7.28 96.576C8.168 96.264 8.996 95.868 9.764 95.388C10.1 95.244 10.412 95.16 10.7 95.136C10.988 95.112 11.228 95.256 11.42 95.568C11.66 95.952 11.6 96.348 11.24 96.756C10.88 97.14 10.4 97.488 9.8 97.8C9.2 98.136 8.564 98.436 7.892 98.7C7.244 98.94 6.584 99.12 5.912 99.24C5.24 99.336 4.568 99.336 3.896 99.24C3.248 99.144 2.636 98.916 2.06 98.556C1.148 97.932 0.596 97.044 0.404 95.892C0.212 94.74 0.296 93.552 0.656 92.328C0.8 91.872 1.004 91.416 1.268 90.96C1.532 90.48 1.844 90.048 2.204 89.664C2.588 89.28 3.008 88.956 3.464 88.692C3.92 88.404 4.424 88.212 4.976 88.116C5.864 87.972 6.716 88.068 7.532 88.404C8.348 88.716 8.888 89.304 9.152 90.168C9.2 90.36 9.2 90.564 9.152 90.78C9.104 90.972 8.972 91.128 8.756 91.248ZM16.039 84.552C16.039 85.128 16.027 85.776 16.003 86.496C16.003 87.216 16.003 87.96 16.003 88.728C16.027 89.496 16.039 90.288 16.039 91.104C16.063 91.92 16.087 92.7 16.111 93.444C16.351 92.964 16.639 92.496 16.975 92.04C17.311 91.56 17.683 91.14 18.091 90.78C18.523 90.42 18.967 90.132 19.423 89.916C19.903 89.7 20.419 89.592 20.971 89.592C21.571 89.592 22.099 89.784 22.555 90.168C23.035 90.552 23.443 91.068 23.779 91.716C24.139 92.34 24.439 93.048 24.679 93.84C24.919 94.608 25.111 95.4 25.255 96.216C25.423 97.008 25.543 97.776 25.615 98.52C25.687 99.24 25.747 99.864 25.795 100.392C25.795 100.776 25.699 101.088 25.507 101.328C25.315 101.568 25.087 101.688 24.823 101.688C24.631 101.688 24.391 101.568 24.103 101.328C23.839 101.064 23.647 100.752 23.527 100.392C23.455 100.104 23.383 99.684 23.311 99.132C23.239 98.58 23.155 97.992 23.059 97.368C22.963 96.72 22.843 96.072 22.699 95.424C22.555 94.776 22.375 94.2 22.159 93.696C21.967 93.168 21.727 92.76 21.439 92.472C21.151 92.184 20.815 92.076 20.431 92.148C19.831 92.268 19.303 92.688 18.847 93.408C18.415 94.128 18.031 94.944 17.695 95.856C17.383 96.768 17.119 97.692 16.903 98.628C16.711 99.564 16.567 100.32 16.471 100.896C16.375 101.328 16.243 101.628 16.075 101.796C15.931 101.94 15.763 102.012 15.571 102.012C15.379 102.012 15.199 101.916 15.031 101.724C14.887 101.532 14.743 101.304 14.599 101.04C14.479 100.752 14.371 100.464 14.275 100.176C14.179 99.864 14.119 99.6 14.095 99.384C13.975 98.088 13.879 96.852 13.807 95.676C13.735 94.476 13.675 93.276 13.627 92.076C13.603 90.876 13.591 89.652 13.591 88.404C13.591 87.132 13.615 85.776 13.663 84.336C13.663 83.136 14.095 82.596 14.959 82.716C15.247 82.764 15.499 82.98 15.715 83.364C15.931 83.724 16.039 84.12 16.039 84.552ZM37.3901 87.18C37.4861 87.852 37.5581 88.572 37.6061 89.34C37.6781 90.084 37.7261 90.84 37.7501 91.608C37.7981 92.376 37.8221 93.12 37.8221 93.84C37.8221 94.56 37.8101 95.208 37.7861 95.784C38.5541 96.312 39.0101 96.78 39.1541 97.188C39.3221 97.596 39.3461 97.956 39.2261 98.268C39.0821 98.7 38.8181 98.928 38.4341 98.952C38.0741 98.952 37.6541 98.82 37.1741 98.556C36.8381 98.796 36.4541 99.06 36.0221 99.348C35.5901 99.612 35.1341 99.876 34.6541 100.14C34.1741 100.38 33.6941 100.596 33.2141 100.788C32.7341 100.98 32.2901 101.112 31.8821 101.184C31.1141 101.304 30.4181 101.16 29.7941 100.752C29.1941 100.344 28.7861 99.732 28.5701 98.916C28.4261 98.364 28.3901 97.8 28.4621 97.224C28.5341 96.624 28.7141 96.06 29.0021 95.532C29.2901 94.98 29.6741 94.488 30.1541 94.056C30.6581 93.624 31.2461 93.288 31.9181 93.048C32.0861 92.976 32.3141 92.916 32.6021 92.868C32.9141 92.82 33.2261 92.808 33.5381 92.832C33.8741 92.832 34.2101 92.892 34.5461 93.012C34.8821 93.132 35.1941 93.336 35.4821 93.624C35.4821 93.216 35.4701 92.772 35.4461 92.292C35.4461 91.788 35.4341 91.284 35.4101 90.78C35.3861 90.276 35.3501 89.808 35.3021 89.376C35.2781 88.92 35.2421 88.536 35.1941 88.224C35.1461 87.864 35.0021 87.648 34.7621 87.576C34.5461 87.48 34.2701 87.492 33.9341 87.612C33.3581 87.804 32.6861 88.176 31.9181 88.728C31.1501 89.28 30.4181 89.868 29.7221 90.492C29.5061 90.708 29.2541 90.804 28.9661 90.78C28.7021 90.756 28.4741 90.648 28.2821 90.456C28.0901 90.264 27.9821 90.048 27.9581 89.808C27.9341 89.544 28.0301 89.268 28.2461 88.98C28.6541 88.548 29.1101 88.104 29.6141 87.648C30.1181 87.192 30.6461 86.784 31.1981 86.424C31.7501 86.04 32.3141 85.728 32.8901 85.488C33.4661 85.248 34.0421 85.116 34.6181 85.092C35.4581 85.068 36.1061 85.26 36.5621 85.668C37.0181 86.052 37.2941 86.556 37.3901 87.18ZM33.2141 94.92C32.9021 94.992 32.5661 95.148 32.2061 95.388C31.8701 95.604 31.5581 95.88 31.2701 96.216C31.0061 96.528 30.8021 96.888 30.6581 97.296C30.5381 97.68 30.5381 98.064 30.6581 98.448C30.7061 98.592 30.8021 98.7 30.9461 98.772C31.1141 98.844 31.2941 98.856 31.4861 98.808C32.0621 98.688 32.7101 98.46 33.4301 98.124C34.1741 97.764 34.7621 97.38 35.1941 96.972C35.1941 96.828 35.1221 96.648 34.9781 96.432C34.8341 96.192 34.6661 95.964 34.4741 95.748C34.2821 95.508 34.0661 95.304 33.8261 95.136C33.6101 94.968 33.4061 94.896 33.2141 94.92ZM47.4476 104.424C47.4236 104.688 47.3036 104.928 47.0876 105.144C46.8716 105.384 46.6316 105.492 46.3676 105.468C45.9596 105.444 45.6476 105.288 45.4316 105C45.2156 104.712 45.1076 104.472 45.1076 104.28C45.1076 103.368 45.0836 102.42 45.0356 101.436C44.9876 100.428 44.9276 99.396 44.8556 98.34C44.5436 98.388 44.2556 98.364 43.9916 98.268C43.7516 98.148 43.5836 97.968 43.4876 97.728C43.3196 97.32 43.3436 96.96 43.5596 96.648C43.7756 96.336 44.1236 96.036 44.6036 95.748C44.4836 94.86 44.3636 93.984 44.2436 93.12C44.1476 92.256 44.0396 91.416 43.9196 90.6C43.8956 90.456 43.9076 90.324 43.9556 90.204C44.0036 90.084 44.0636 89.976 44.1356 89.88C44.2076 89.76 44.3396 89.652 44.5316 89.556C44.8436 89.436 45.1916 89.532 45.5756 89.844C45.9836 90.156 46.2596 90.552 46.4036 91.032C46.4756 91.488 46.5476 92.016 46.6196 92.616C46.7156 93.192 46.7996 93.828 46.8716 94.524C47.3756 94.212 47.8436 93.876 48.2756 93.516C48.7316 93.156 49.1156 92.772 49.4276 92.364C49.7636 91.956 50.0156 91.536 50.1836 91.104C50.3516 90.648 50.3996 90.18 50.3276 89.7C50.2796 89.292 50.0996 88.932 49.7876 88.62C49.4756 88.284 48.9836 88.104 48.3116 88.08C47.7116 88.056 47.1116 88.104 46.5116 88.224C45.9356 88.344 45.3596 88.5 44.7836 88.692C44.2316 88.884 43.6796 89.112 43.1276 89.376C42.5996 89.64 42.0836 89.904 41.5796 90.168C41.2436 90.36 40.9076 90.444 40.5716 90.42C40.2596 90.372 40.0556 90.252 39.9596 90.06C39.7436 89.58 39.7556 89.148 39.9956 88.764C40.2596 88.38 40.6556 88.02 41.1836 87.684C41.6396 87.42 42.1796 87.156 42.8036 86.892C43.4516 86.604 44.1236 86.364 44.8196 86.172C45.5396 85.956 46.2596 85.812 46.9796 85.74C47.7236 85.644 48.4316 85.656 49.1036 85.776C49.7756 85.872 50.3756 86.1 50.9036 86.46C51.4556 86.796 51.8996 87.3 52.2356 87.972C52.6436 89.076 52.7516 90.096 52.5596 91.032C52.3916 91.944 52.0316 92.784 51.4796 93.552C50.9516 94.296 50.2916 94.98 49.4996 95.604C48.7316 96.204 47.9516 96.744 47.1596 97.224C47.2796 98.52 47.3636 99.804 47.4116 101.076C47.4596 102.348 47.4716 103.464 47.4476 104.424ZM63.2457 90.852C63.7017 90.828 64.1577 90.936 64.6137 91.176C65.0697 91.416 65.2977 91.788 65.2977 92.292C65.2497 92.7 65.0217 92.964 64.6137 93.084C64.2297 93.18 63.9177 93.228 63.6777 93.228C63.1977 93.228 62.6817 93.24 62.1297 93.264C61.5777 93.288 61.0137 93.324 60.4377 93.372C60.3897 94.164 60.3417 94.908 60.2937 95.604C60.2697 96.3 60.2457 96.924 60.2217 97.476C60.1977 98.004 60.1857 98.436 60.1857 98.772C60.1857 99.108 60.1977 99.288 60.2217 99.312C60.7497 99.216 61.3137 99.06 61.9137 98.844C62.5377 98.604 63.1497 98.352 63.7497 98.088C64.3737 97.8 64.9737 97.512 65.5497 97.224C66.1497 96.912 66.7137 96.624 67.2417 96.36C67.4817 96.24 67.6977 96.204 67.8897 96.252C68.1057 96.3 68.2377 96.408 68.2857 96.576C68.3337 96.84 68.2977 97.164 68.1777 97.548C68.0577 97.932 67.8417 98.28 67.5297 98.592C67.1697 98.88 66.6897 99.216 66.0897 99.6C65.5137 99.96 64.8897 100.308 64.2177 100.644C63.5457 100.98 62.8617 101.28 62.1657 101.544C61.4937 101.784 60.8937 101.928 60.3657 101.976C59.5737 102.048 58.9737 101.832 58.5657 101.328C58.1577 100.824 57.9297 100.188 57.8817 99.42C57.8337 98.652 57.8217 97.764 57.8457 96.756C57.8937 95.748 57.9417 94.68 57.9897 93.552C57.5337 93.6 57.0897 93.648 56.6577 93.696C56.2497 93.72 55.8537 93.756 55.4697 93.804C55.1577 93.804 54.8097 93.732 54.4257 93.588C54.0657 93.444 53.8857 93.168 53.8857 92.76C53.8857 92.616 53.9457 92.424 54.0657 92.184C54.1857 91.944 54.4497 91.764 54.8577 91.644C55.8417 91.476 56.9337 91.332 58.1337 91.212C58.2057 90.084 58.2897 88.992 58.3857 87.936C58.4817 86.88 58.5657 85.92 58.6377 85.056C58.6617 84.768 58.7457 84.516 58.8897 84.3C59.0337 84.084 59.1897 83.976 59.3577 83.976C59.7657 83.952 60.1497 84.06 60.5097 84.3C60.8937 84.516 61.0857 84.768 61.0857 85.056C60.9897 85.872 60.8937 86.796 60.7977 87.828C60.7257 88.86 60.6537 89.916 60.5817 90.996C61.0617 90.948 61.5177 90.924 61.9497 90.924C62.4057 90.9 62.8377 90.876 63.2457 90.852ZM78.481 92.04C77.545 92.592 76.537 93.024 75.457 93.336C74.377 93.624 73.213 93.768 71.965 93.768C72.013 94.608 72.253 95.28 72.685 95.784C73.117 96.264 73.657 96.552 74.305 96.648C74.689 96.696 75.073 96.684 75.457 96.612C75.865 96.54 76.237 96.432 76.573 96.288C76.933 96.12 77.257 95.94 77.545 95.748C77.833 95.556 78.085 95.364 78.301 95.172C78.517 94.98 78.745 94.86 78.985 94.812C79.225 94.74 79.405 94.728 79.525 94.776C79.861 94.896 79.981 95.256 79.885 95.856C79.501 96.624 78.949 97.284 78.229 97.836C77.509 98.364 76.705 98.7 75.817 98.844C75.049 98.988 74.257 98.952 73.441 98.736C72.625 98.52 71.893 98.1 71.245 97.476C70.693 96.924 70.273 96.276 69.985 95.532C69.697 94.788 69.517 94.02 69.445 93.228C69.373 92.484 69.433 91.776 69.625 91.104C69.841 90.432 70.165 89.844 70.597 89.34C71.029 88.812 71.569 88.38 72.217 88.044C72.865 87.708 73.621 87.516 74.485 87.468C75.517 87.396 76.453 87.588 77.293 88.044C78.133 88.5 78.721 89.136 79.057 89.952C79.249 90.408 79.297 90.804 79.201 91.14C79.129 91.476 78.889 91.776 78.481 92.04ZM74.341 89.592C74.101 89.64 73.837 89.724 73.549 89.844C73.285 89.964 73.033 90.12 72.793 90.312C72.577 90.48 72.373 90.684 72.181 90.924C72.013 91.14 71.917 91.392 71.893 91.68C72.301 91.68 72.745 91.644 73.225 91.572C73.729 91.5 74.209 91.416 74.665 91.32C75.145 91.2 75.577 91.068 75.961 90.924C76.369 90.78 76.705 90.624 76.969 90.456C76.777 90 76.417 89.724 75.889 89.628C75.385 89.508 74.869 89.496 74.341 89.592ZM93.1541 88.08C92.7221 88.32 92.2661 88.572 91.7861 88.836C91.3301 89.1 90.8621 89.412 90.3821 89.772C89.9261 90.108 89.4821 90.516 89.0501 90.996C88.6421 91.452 88.2701 92.004 87.9341 92.652C87.4541 93.564 87.1301 94.5 86.9621 95.46C86.7941 96.396 86.6861 97.32 86.6381 98.232C86.6381 98.664 86.5301 99.108 86.3141 99.564C86.1221 99.996 85.8461 100.212 85.4861 100.212C85.0301 100.212 84.6581 99.984 84.3701 99.528C84.1061 99.048 83.9261 98.592 83.8301 98.16C83.4221 96.456 83.0861 94.776 82.8221 93.12C82.5581 91.44 82.3301 89.772 82.1381 88.116C82.1381 87.78 82.2341 87.564 82.4261 87.468C82.6421 87.372 82.8821 87.336 83.1461 87.36C83.4341 87.384 83.7101 87.456 83.9741 87.576C84.2381 87.696 84.3941 87.888 84.4421 88.152C84.5381 89.04 84.6581 89.976 84.8021 90.96C84.9461 91.92 85.0901 92.748 85.2341 93.444C85.3301 92.628 85.5941 91.836 86.0261 91.068C86.4581 90.3 86.9861 89.604 87.6101 88.98C88.2581 88.356 88.9781 87.828 89.7701 87.396C90.5861 86.964 91.4141 86.676 92.2541 86.532C92.6141 86.484 92.9141 86.484 93.1541 86.532C93.3941 86.58 93.5621 86.664 93.6581 86.784C93.7541 86.904 93.7661 87.096 93.6941 87.36C93.6461 87.624 93.4661 87.864 93.1541 88.08ZM101.016 81.636C100.8 82.692 100.572 83.736 100.332 84.768C100.116 85.8 99.9116 86.832 99.7196 87.864C99.5276 88.896 99.3836 89.928 99.2876 90.96C99.1916 91.992 99.1796 93.024 99.2516 94.056C99.2996 94.32 99.2516 94.572 99.1076 94.812C98.9876 95.052 98.8436 95.208 98.6756 95.28C98.1476 95.472 97.7636 95.34 97.5236 94.884C97.2356 93.66 97.0796 92.448 97.0556 91.248C97.0556 90.048 97.1396 88.86 97.3076 87.684C97.4996 86.508 97.7396 85.344 98.0276 84.192C98.3396 83.016 98.6516 81.852 98.9636 80.7C99.0836 80.22 99.2756 79.956 99.5396 79.908C99.8036 79.86 100.056 79.884 100.296 79.98C100.656 80.1 100.884 80.34 100.98 80.7C101.076 81.06 101.088 81.372 101.016 81.636ZM99.5756 101.004C99.5756 101.268 99.5396 101.628 99.4676 102.084C99.4196 102.516 99.3236 102.924 99.1796 103.308C99.0596 103.692 98.8796 104.004 98.6396 104.244C98.4236 104.484 98.1476 104.532 97.8116 104.388C97.6196 104.268 97.4276 104.04 97.2356 103.704C97.0436 103.368 96.9596 103.056 96.9836 102.768C97.0316 102.192 97.1516 101.628 97.3436 101.076C97.5356 100.524 97.7876 100.188 98.0996 100.068C98.2436 100.02 98.3996 100.02 98.5676 100.068C98.7596 100.116 98.9276 100.2 99.0716 100.32C99.2156 100.416 99.3356 100.536 99.4316 100.68C99.5276 100.8 99.5756 100.908 99.5756 101.004Z" fill="black"/>
</svg>
