<svg width="302" height="56" viewBox="0 0 302 56" fill="none" xmlns="http://www.w3.org/2000/svg">
<path fill-rule="evenodd" clip-rule="evenodd" d="M111.965 21.7296C110.125 22.1181 108.295 22.5306 106.477 22.9689C105.815 23.1283 105.411 23.7892 105.572 24.4443L105.581 24.4701C95.7289 24.6282 85.8794 24.8795 76.0345 25.2264C61.8129 25.728 47.5015 26.5637 33.3295 27.8711C19.3242 29.1629 15.4549 29.4949 3.40665 31.668C3.06209 31.7301 2.39727 31.7255 2.0397 31.8242C1.69968 31.9179 1.45639 32.0816 1.30021 32.2419C1.10016 32.4451 0.985233 32.6793 0.936724 32.9357C0.885411 33.2151 0.90117 33.5565 1.1437 33.9382C1.82788 35.0094 2.93234 35.3045 4.27875 35.0802C5.43722 34.887 6.83725 34.1997 7.93476 34.1222C26.2051 32.8333 44.463 31.402 62.7353 30.1393C90.7081 28.2065 118.597 27.3107 146.491 26.7867C175.818 27.0719 205.131 28.1529 234.394 29.9686C253.452 31.1503 272.471 32.8954 291.505 34.4244C291.491 34.5073 291.489 34.5939 291.493 34.6823C291.535 35.3551 292.123 35.8685 292.802 35.8282C293.491 35.7874 299.634 35.6204 300.766 35.3451C301.415 35.1873 301.668 34.7909 301.752 34.6212C301.98 34.1557 301.993 33.6496 301.483 33.1663C301.382 33.0736 301.195 32.9203 300.85 32.8223C300.555 32.7363 299.824 32.6272 298.497 32.5261C277.178 30.8844 255.886 28.8554 234.543 27.5299C225.015 26.9401 215.482 26.426 205.94 25.9944C218.889 25.8407 231.844 25.6646 244.818 25.4006C245.377 25.3908 245.648 25.3012 245.698 25.28C246.41 24.9761 246.459 24.4188 246.445 24.1029C246.441 23.9902 246.344 23.0596 245.299 22.9279C244.687 22.8505 240.267 22.6969 238.567 22.606C230.397 22.1617 230.587 22.2305 222.229 21.8458C203.848 21.0022 185.495 20.4352 167.093 19.9735C159.756 19.7897 152.419 19.6404 145.08 19.5291C166.228 17.7668 187.814 17.8605 208.385 17.6609C218.997 17.5582 229.612 17.5209 240.224 17.6667C244.977 17.7322 249.729 17.8766 254.482 17.9656C255.958 17.9931 257.431 18.0548 258.906 18.091C259.08 18.0951 261.369 18.116 261.744 18.1083C262.727 18.0881 262.953 17.2214 262.961 17.1867C263.003 17.0236 263.165 15.8575 261.943 15.6763C244.295 13.0588 225.798 13.6501 207.975 13.2094C176.78 12.4378 145.503 12.5671 114.312 13.4964C100.515 13.9073 86.7637 14.779 72.9871 15.6463C66.1066 16.0795 59.2079 16.539 52.3936 17.6062C51.71 17.7135 50.1605 17.8228 49.409 17.95C49.0266 18.015 48.7543 18.1177 48.6297 18.1879C48.0834 18.4926 47.975 18.9415 47.9666 19.2562C47.9613 19.4921 48.0127 20.3228 49.1388 20.5776C65.2302 24.2239 83.0811 21.9033 99.4179 21.7817C103.6 21.7506 107.781 21.7334 111.965 21.7296ZM125.588 21.7643C120.742 22.4929 115.945 23.3588 111.216 24.3902C122.977 24.2439 134.739 24.23 146.506 24.3447C165.918 23.9801 185.329 23.7949 204.764 23.5657C192.197 23.0961 179.626 22.7308 167.035 22.4151C153.224 22.0686 139.406 21.8457 125.588 21.7643ZM192.843 15.3481C166.696 14.9427 140.514 15.1591 114.393 15.9373C100.621 16.3476 86.8983 17.218 73.1485 18.0837C67.7381 18.4243 62.313 18.7795 56.9305 19.4419C70.8404 21.1511 85.659 19.4417 99.3949 19.3396C108.07 19.2751 116.749 19.2701 125.426 19.3209C147.484 16.0284 170.53 15.5501 192.843 15.3481Z" fill="#3B82F6"/>
</svg>
