<?xml version="1.0" standalone="no"?>
<svg viewBox="0 0 200 200" xmlns="http://www.w3.org/2000/svg">
  <path fill="#0F62FE" d="M31.6,-56C39.1,-50.3,42.1,-38.2,45.5,-27.8C48.9,-17.4,52.6,-8.7,54.6,1.2C56.7,11,57,22.1,51.7,29.2C46.5,36.4,35.6,39.7,26.1,48.6C16.5,57.5,8.3,71.9,0.4,71.3C-7.6,70.7,-15.1,55,-24.4,46C-33.7,36.9,-44.7,34.5,-55.9,28C-67.2,21.4,-78.7,10.7,-77.4,0.7C-76.1,-9.2,-62,-18.5,-52.4,-27.9C-42.8,-37.2,-37.7,-46.8,-29.7,-52.2C-21.7,-57.5,-10.8,-58.7,0.6,-59.7C12,-60.7,24,-61.6,31.6,-56Z" transform="translate(100 100)" />
</svg>
