<svg width="120" height="175" viewBox="0 0 120 175" fill="none" xmlns="http://www.w3.org/2000/svg">
<rect width="120" height="120" rx="12" fill="#B71178"/>
<path d="M49.955 54.6636L41.0038 77.5965C40.7423 78.1844 40.9384 78.8378 41.3307 79.2954L42.4413 80.406L58.3181 64.5293C57.5993 63.288 57.7301 61.6543 58.8407 60.6092C60.082 59.3679 62.1727 59.3679 63.4142 60.6092C64.6555 61.8505 64.6555 63.9412 63.4142 65.1827C62.369 66.2279 60.7354 66.424 59.4941 65.7053L43.6173 81.6474L44.7279 82.7581C45.1851 83.2153 45.8385 83.346 46.4269 83.0849L69.3609 74.0683C71.2556 73.3496 72.6929 71.8467 73.281 69.8866L77.4626 57.4071C77.7895 56.4268 77.528 55.3163 76.8093 54.5975L69.4916 47.2798C68.7729 46.5611 67.6623 46.2996 66.682 46.6265L54.1371 50.7427C52.2424 51.3961 50.7396 52.8335 49.9554 54.6633L49.955 54.6636Z" fill="#FBFBFC"/>
<path d="M72.1043 36.238L87.7849 51.9186C88.1767 52.3105 88.1767 52.8989 87.7849 53.2253L84.4528 56.5574C83.5379 57.4723 82.1004 57.4723 81.2514 56.5574L67.4651 42.8365C66.5502 41.9216 66.5502 40.4841 67.4651 39.6351L70.7972 36.303C71.189 35.9107 71.777 35.9107 72.1039 36.2372L72.1043 36.238Z" fill="#FBFBFC"/>
<path d="M40.8728 83.9997C40.6766 83.9997 36.495 83.9343 34.3388 80.4714C32.2485 77.1393 32.8364 71.9124 36.1686 64.9216C37.9325 61.1972 37.2138 58.0612 35.9725 56.4276C34.9922 55.1863 33.6201 54.5983 32.1827 54.794L31.9212 53.2259C34.012 52.899 35.9721 53.6831 37.2788 55.4475C39.2389 57.9954 39.3696 61.916 37.6057 65.5746C34.6 71.9124 33.9466 76.7473 35.711 79.5571C37.4099 82.2359 40.8728 82.3013 40.8728 82.3013L40.8728 83.9997Z" fill="#FBFBFC"/>
<path d="M4.508 167V144.6H14.3C16.732 144.6 18.8653 145.069 20.7 146.008C22.5347 146.947 23.964 148.248 24.988 149.912C26.012 151.576 26.524 153.539 26.524 155.8C26.524 158.04 26.012 160.003 24.988 161.688C23.964 163.352 22.5347 164.653 20.7 165.592C18.8653 166.531 16.732 167 14.3 167H4.508ZM8.668 163.48H14.108C15.7933 163.48 17.244 163.16 18.46 162.52C19.6973 161.88 20.6467 160.984 21.308 159.832C21.9907 158.68 22.332 157.336 22.332 155.8C22.332 154.243 21.9907 152.899 21.308 151.768C20.6467 150.616 19.6973 149.72 18.46 149.08C17.244 148.44 15.7933 148.12 14.108 148.12H8.668V163.48ZM38.5935 167.224C36.6948 167.224 35.0308 166.851 33.6015 166.104C32.1935 165.336 31.0948 164.291 30.3055 162.968C29.5375 161.645 29.1535 160.141 29.1535 158.456C29.1535 156.749 29.5268 155.245 30.2735 153.944C31.0415 152.621 32.0868 151.587 33.4095 150.84C34.7535 150.093 36.2788 149.72 37.9855 149.72C39.6495 149.72 41.1322 150.083 42.4335 150.808C43.7348 151.533 44.7588 152.557 45.5055 153.88C46.2522 155.203 46.6255 156.76 46.6255 158.552C46.6255 158.723 46.6148 158.915 46.5935 159.128C46.5935 159.341 46.5828 159.544 46.5615 159.736H32.3215V157.08H44.4495L42.8815 157.912C42.9028 156.931 42.7002 156.067 42.2735 155.32C41.8468 154.573 41.2602 153.987 40.5135 153.56C39.7882 153.133 38.9455 152.92 37.9855 152.92C37.0042 152.92 36.1402 153.133 35.3935 153.56C34.6682 153.987 34.0922 154.584 33.6655 155.352C33.2602 156.099 33.0575 156.984 33.0575 158.008V158.648C33.0575 159.672 33.2922 160.579 33.7615 161.368C34.2308 162.157 34.8922 162.765 35.7455 163.192C36.5988 163.619 37.5802 163.832 38.6895 163.832C39.6495 163.832 40.5135 163.683 41.2815 163.384C42.0495 163.085 42.7322 162.616 43.3295 161.976L45.4735 164.44C44.7055 165.336 43.7348 166.029 42.5615 166.52C41.4095 166.989 40.0868 167.224 38.5935 167.224ZM55.7478 167.224C54.3184 167.224 52.9424 167.043 51.6198 166.68C50.3184 166.296 49.2838 165.837 48.5158 165.304L50.0518 162.264C50.8198 162.755 51.7371 163.16 52.8038 163.48C53.8704 163.8 54.9371 163.96 56.0038 163.96C57.2624 163.96 58.1691 163.789 58.7238 163.448C59.2998 163.107 59.5878 162.648 59.5878 162.072C59.5878 161.603 59.3958 161.251 59.0118 161.016C58.6278 160.76 58.1264 160.568 57.5078 160.44C56.8891 160.312 56.1958 160.195 55.4278 160.088C54.6811 159.981 53.9238 159.843 53.1558 159.672C52.4091 159.48 51.7264 159.213 51.1078 158.872C50.4891 158.509 49.9878 158.029 49.6038 157.432C49.2198 156.835 49.0278 156.045 49.0278 155.064C49.0278 153.976 49.3371 153.037 49.9557 152.248C50.5744 151.437 51.4384 150.819 52.5477 150.392C53.6784 149.944 55.0118 149.72 56.5478 149.72C57.6998 149.72 58.8624 149.848 60.0358 150.104C61.2091 150.36 62.1798 150.723 62.9478 151.192L61.4118 154.232C60.6011 153.741 59.7798 153.411 58.9478 153.24C58.1371 153.048 57.3264 152.952 56.5158 152.952C55.2998 152.952 54.3931 153.133 53.7958 153.496C53.2198 153.859 52.9318 154.317 52.9318 154.872C52.9318 155.384 53.1238 155.768 53.5078 156.024C53.8918 156.28 54.3931 156.483 55.0118 156.632C55.6304 156.781 56.3131 156.909 57.0598 157.016C57.8278 157.101 58.5851 157.24 59.3318 157.432C60.0784 157.624 60.7611 157.891 61.3798 158.232C62.0198 158.552 62.5318 159.011 62.9158 159.608C63.2998 160.205 63.4918 160.984 63.4918 161.944C63.4918 163.011 63.1718 163.939 62.5318 164.728C61.9131 165.517 61.0278 166.136 59.8758 166.584C58.7238 167.011 57.3478 167.224 55.7478 167.224ZM66.9365 167V149.912H70.9365V167H66.9365ZM68.9525 147.096C68.2058 147.096 67.5872 146.861 67.0965 146.392C66.6272 145.923 66.3925 145.357 66.3925 144.696C66.3925 144.013 66.6272 143.448 67.0965 143C67.5872 142.531 68.2058 142.296 68.9525 142.296C69.6992 142.296 70.3072 142.52 70.7765 142.968C71.2672 143.395 71.5125 143.939 71.5125 144.6C71.5125 145.304 71.2778 145.901 70.8085 146.392C70.3392 146.861 69.7205 147.096 68.9525 147.096ZM83.9305 173.432C82.3518 173.432 80.8052 173.219 79.2905 172.792C77.7972 172.387 76.5705 171.789 75.6105 171L77.4025 167.992C78.1492 168.611 79.0878 169.101 80.2185 169.464C81.3705 169.848 82.5332 170.04 83.7065 170.04C85.5838 170.04 86.9598 169.603 87.8345 168.728C88.7092 167.875 89.1465 166.584 89.1465 164.856V161.816L89.4665 157.944L89.3385 154.072V149.912H93.1465V164.408C93.1465 167.501 92.3572 169.773 90.7785 171.224C89.1998 172.696 86.9172 173.432 83.9305 173.432ZM83.4185 166.232C81.7972 166.232 80.3252 165.891 79.0025 165.208C77.7012 164.504 76.6665 163.533 75.8985 162.296C75.1518 161.059 74.7785 159.608 74.7785 157.944C74.7785 156.301 75.1518 154.861 75.8985 153.624C76.6665 152.387 77.7012 151.427 79.0025 150.744C80.3252 150.061 81.7972 149.72 83.4185 149.72C84.8692 149.72 86.1705 150.008 87.3225 150.584C88.4745 151.16 89.3918 152.056 90.0745 153.272C90.7785 154.488 91.1305 156.045 91.1305 157.944C91.1305 159.843 90.7785 161.411 90.0745 162.648C89.3918 163.864 88.4745 164.771 87.3225 165.368C86.1705 165.944 84.8692 166.232 83.4185 166.232ZM84.0265 162.84C85.0292 162.84 85.9252 162.637 86.7145 162.232C87.5038 161.805 88.1118 161.229 88.5385 160.504C88.9865 159.757 89.2105 158.904 89.2105 157.944C89.2105 156.984 88.9865 156.141 88.5385 155.416C88.1118 154.669 87.5038 154.104 86.7145 153.72C85.9252 153.315 85.0292 153.112 84.0265 153.112C83.0238 153.112 82.1172 153.315 81.3065 153.72C80.5172 154.104 79.8985 154.669 79.4505 155.416C79.0238 156.141 78.8105 156.984 78.8105 157.944C78.8105 158.904 79.0238 159.757 79.4505 160.504C79.8985 161.229 80.5172 161.805 81.3065 162.232C82.1172 162.637 83.0238 162.84 84.0265 162.84ZM108.101 149.72C109.467 149.72 110.683 149.987 111.749 150.52C112.837 151.053 113.691 151.875 114.309 152.984C114.928 154.072 115.237 155.48 115.237 157.208V167H111.237V157.72C111.237 156.205 110.875 155.075 110.149 154.328C109.445 153.581 108.453 153.208 107.173 153.208C106.235 153.208 105.403 153.4 104.677 153.784C103.952 154.168 103.387 154.744 102.981 155.512C102.597 156.259 102.405 157.208 102.405 158.36V167H98.4053V149.912H102.213V154.52L101.541 153.112C102.139 152.024 103.003 151.192 104.133 150.616C105.285 150.019 106.608 149.72 108.101 149.72Z" fill="#13151A"/>
</svg>
