<svg id="visual" viewBox="0 0 900 600" width="900" height="600" xmlns="http://www.w3.org/2000/svg" xmlns:xlink="http://www.w3.org/1999/xlink" version="1.1"><g transform="translate(435.14883183321086 286.1269041723756)"><path d="M67.7 -110.3C97.5 -100.2 137.9 -101.6 160.8 -85.1C183.6 -68.7 188.8 -34.3 180 -5.1C171.2 24.2 148.4 48.3 125.4 64.6C102.5 80.8 79.4 89.1 58.4 112C37.5 135 18.8 172.5 -9.4 188.7C-37.5 205 -75 199.9 -99.7 179.2C-124.4 158.4 -136.2 122 -144.6 89.5C-153.1 57 -158 28.5 -151 4.1C-143.9 -20.3 -124.8 -40.7 -115.4 -71.4C-105.9 -102.2 -106.2 -143.3 -88.6 -160.5C-71 -177.6 -35.5 -170.8 -8.3 -156.5C19 -142.2 38 -120.5 67.7 -110.3" fill="#F7770F"></path></g></svg>