<?xml version="1.0" encoding="utf-8"?>
<!-- Generator: Adobe Illustrator 27.2.0, SVG Export Plug-In . SVG Version: 6.00 Build 0)  -->
<svg version="1.1" id="Layer_1" xmlns="http://www.w3.org/2000/svg" xmlns:xlink="http://www.w3.org/1999/xlink" x="0px" y="0px"
	 viewBox="0 0 1920 1080" style="enable-background:new 0 0 1920 1080;" xml:space="preserve">
<style type="text/css">
	.st0{fill:#CC3333;}
</style>
<path class="st0" d="M1421.7,601.4c-0.2-7.3-1.4-14.7-3.7-22c-4.7-14.2-13-26.5-23-37.2c-3.3-6.3-8.1-12-12.8-17.3
	c-11.4-12.4-22.8-24.6-34.8-36.6c-21.6-21.6-44.8-41.9-70.8-58c-2.8-1.8-5.5-3.5-8.5-5.1c-0.6-0.4-1-0.8-1.6-1.2
	c-8.8-6.7-19.5-8.6-29.3-12.2c-2.6-1.2-5.1-2.4-7.7-3.3c-2.2-1.2-4.1-2.4-6.1-3.9c-12.2-9.8-21.8-22.2-34.4-31.5
	c-6.7-4.9-13.4-9.8-19.7-14.9c-0.8-0.8-1.6-1.4-2.4-2c-5.3-4.3-10.4-8.8-15.1-14c-22-23.4-38.5-51.3-57.8-76.9
	c-11-14.7-25-34-41.9-45.8c-4.5-4.5-9.6-8.3-15.3-11c-5.5-3.7-11.4-7.1-17.5-9.4c-5.1-2-10.6-3.1-16.1-3.5c-0.2,0-0.2,0-0.4,0
	c-0.2,0-0.6,0-0.8,0c-1.2,0-2.2,0-3.3,0c-2.8-0.8-4.9-0.4-6.9,0.6c-0.2,0-0.4,0-0.6,0.2c-12,2-22.8,8.3-27.7,18.9
	c-0.2,0.4-0.6,1-0.8,1.4c-13.2,11-20.8,25-26.7,40.9c-6.1,16.5-13.6,31.8-25.2,45.4c-15.1,17.7-34,31.3-54.7,41.1
	c-23.6,10-48.4,15.9-73.5,22c-32.4,7.7-63.5,20.1-94.2,33c-8.8,3.7-17.9,8.3-25.9,14c-16.1,7.9-31.5,19.3-42.1,33.4
	c-13.4,15.3-21.4,34.6-21.8,55c-0.4,23,8.3,46,17.3,66.6c11.4,25.6,28.9,49,52.3,63.1c4.9,3.3,10,6.7,15.1,9.4
	c17.3,13.6,36.4,24,57,31.7c32,12.2,71.4,15.9,105.4,6.1c0.6,0.2,1.4,0.2,2.2,0.2c2-0.2,3.7-0.2,5.7-0.4c1,0,2-0.2,2.8-0.6
	c22.8,1.4,45.2,5.3,67.2,11.6c37.9,10.8,71.8,28.5,104,50.9c15.5,10.8,31.7,20.2,50.5,23.4c19.3,3.3,38.7,1.8,58-0.6
	c19.7-2.4,39.7-4.5,59-9c19.5-4.7,37.7-12.8,55.4-22.2c6.5-3.5,13-7.1,19.3-10.8c46.4-15.1,96.9-22.2,129.7-60.9
	c7.3-8.6,13.2-18.7,17.1-29.1c2.2-3.1,4.1-6.5,5.3-10.4C1423.9,614,1423.5,607.7,1421.7,601.4z M1008.5,464.8
	C1013,463.4,1012.4,465.6,1008.5,464.8L1008.5,464.8z"/>
</svg>
