<svg width="196" height="175" viewBox="0 0 196 175" fill="none" xmlns="http://www.w3.org/2000/svg">
<rect x="38" width="120" height="120" rx="12" fill="#E1A302"/>
<path d="M83.1095 48.7832C82.1333 48.7832 81.3201 49.5965 81.3201 50.5727C81.3201 51.5488 82.1334 52.3621 83.1095 52.3621C84.0857 52.3621 84.899 51.5488 84.899 50.5727C84.899 49.5965 84.0857 48.7832 83.1095 48.7832Z" fill="#FBFBFC"/>
<path d="M96.2036 52.2797H99.7821V48.7012H96.2036V52.2797Z" fill="#FBFBFC"/>
<path d="M112.877 48.7832C111.901 48.7832 111.087 49.5965 111.087 50.5727C111.087 51.5488 111.901 52.3621 112.877 52.3621C113.853 52.3621 114.666 51.5488 114.666 50.5727C114.666 49.5965 113.853 48.7832 112.877 48.7832Z" fill="#FBFBFC"/>
<path d="M97.9932 40.2426C83.4344 26.8227 62.1255 48.4575 76.5212 62.8533L97.4238 83.7559C97.5863 83.9184 97.7491 84 97.9929 84C98.2371 84 98.3996 83.9187 98.5621 83.7559L119.465 62.8533C122.799 59.5186 124.263 55.6959 124.263 52.0359C124.263 40.2426 109.217 29.9131 97.9929 40.2426H97.9932ZM112.877 53.907C111.25 53.907 109.949 52.7683 109.542 51.3043H101.409V53.0938C101.409 53.5817 101.083 53.9071 100.596 53.9071H99.3756L104.906 64.968C105.069 65.2934 104.987 65.7 104.744 65.9442C104.499 66.1883 104.093 66.1883 103.767 66.0254L101.083 64.3176V67.1641C101.083 67.652 100.758 67.9774 100.27 67.9774H95.7966C95.3087 67.9774 94.9833 67.652 94.9833 67.1641V64.3176L92.2993 66.0254C91.9739 66.1879 91.5673 66.1879 91.3231 65.9442C91.079 65.7 90.9977 65.2934 91.1606 64.968L96.6911 53.9071H95.4711C94.9832 53.9071 94.6578 53.5817 94.6578 53.0938V51.3043H86.3621C85.9554 52.7683 84.6543 53.907 83.0273 53.907C81.1566 53.907 79.6113 52.3617 79.6113 50.491C79.6113 48.6202 81.1566 47.0749 83.0273 47.0749C84.6539 47.0749 85.9554 48.2136 86.3621 49.6776H94.5765V47.8882C94.5765 47.4003 94.9019 47.0749 95.3898 47.0749H100.595C101.083 47.0749 101.409 47.4003 101.409 47.8882V49.6776H109.623C110.03 48.2136 111.331 47.0749 112.958 47.0749C114.829 47.0749 116.374 48.6202 116.374 50.491C116.293 52.4429 114.747 53.907 112.877 53.907H112.877Z" fill="#FBFBFC"/>
<path d="M12.64 167.32C9.568 167.32 7.15733 166.456 5.408 164.728C3.68 163 2.816 160.504 2.816 157.24V144.6H6.976V157.08C6.976 159.384 7.46667 161.059 8.448 162.104C9.45067 163.149 10.8587 163.672 12.672 163.672C14.4853 163.672 15.8827 163.149 16.864 162.104C17.8453 161.059 18.336 159.384 18.336 157.08V144.6H22.432V157.24C22.432 160.504 21.5573 163 19.808 164.728C18.08 166.456 15.6907 167.32 12.64 167.32ZM37.57 149.72C38.9353 149.72 40.1513 149.987 41.218 150.52C42.306 151.053 43.1593 151.875 43.778 152.984C44.3967 154.072 44.706 155.48 44.706 157.208V167H40.706V157.72C40.706 156.205 40.3433 155.075 39.618 154.328C38.914 153.581 37.922 153.208 36.642 153.208C35.7033 153.208 34.8713 153.4 34.146 153.784C33.4207 154.168 32.8553 154.744 32.45 155.512C32.066 156.259 31.874 157.208 31.874 158.36V167H27.874V149.912H31.682V154.52L31.01 153.112C31.6073 152.024 32.4713 151.192 33.602 150.616C34.754 150.019 36.0767 149.72 37.57 149.72ZM57.0435 167.224C55.4008 167.224 53.9182 166.861 52.5955 166.136C51.2942 165.389 50.2702 164.365 49.5235 163.064C48.7768 161.763 48.4035 160.227 48.4035 158.456C48.4035 156.685 48.7768 155.149 49.5235 153.848C50.2702 152.547 51.2942 151.533 52.5955 150.808C53.9182 150.083 55.4008 149.72 57.0435 149.72C58.4728 149.72 59.7528 150.04 60.8835 150.68C62.0142 151.299 62.9102 152.248 63.5715 153.528C64.2328 154.808 64.5635 156.451 64.5635 158.456C64.5635 160.44 64.2435 162.083 63.6035 163.384C62.9635 164.664 62.0782 165.624 60.9475 166.264C59.8168 166.904 58.5155 167.224 57.0435 167.224ZM57.5235 163.8C58.4835 163.8 59.3368 163.587 60.0835 163.16C60.8515 162.733 61.4595 162.115 61.9075 161.304C62.3768 160.493 62.6115 159.544 62.6115 158.456C62.6115 157.347 62.3768 156.397 61.9075 155.608C61.4595 154.797 60.8515 154.179 60.0835 153.752C59.3368 153.325 58.4835 153.112 57.5235 153.112C56.5635 153.112 55.6995 153.325 54.9315 153.752C54.1848 154.179 53.5768 154.797 53.1075 155.608C52.6595 156.397 52.4355 157.347 52.4355 158.456C52.4355 159.544 52.6595 160.493 53.1075 161.304C53.5768 162.115 54.1848 162.733 54.9315 163.16C55.6995 163.587 56.5635 163.8 57.5235 163.8ZM62.7075 167V162.968L62.8675 158.424L62.5475 153.88V143.256H66.5155V167H62.7075ZM79.8123 167.224C77.9136 167.224 76.2496 166.851 74.8203 166.104C73.4123 165.336 72.3136 164.291 71.5243 162.968C70.7563 161.645 70.3723 160.141 70.3723 158.456C70.3723 156.749 70.7456 155.245 71.4923 153.944C72.2603 152.621 73.3056 151.587 74.6283 150.84C75.9723 150.093 77.4976 149.72 79.2043 149.72C80.8683 149.72 82.3509 150.083 83.6523 150.808C84.9536 151.533 85.9776 152.557 86.7243 153.88C87.4709 155.203 87.8443 156.76 87.8443 158.552C87.8443 158.723 87.8336 158.915 87.8123 159.128C87.8123 159.341 87.8016 159.544 87.7803 159.736H73.5403V157.08H85.6683L84.1003 157.912C84.1216 156.931 83.9189 156.067 83.4923 155.32C83.0656 154.573 82.4789 153.987 81.7323 153.56C81.0069 153.133 80.1643 152.92 79.2043 152.92C78.2229 152.92 77.3589 153.133 76.6123 153.56C75.8869 153.987 75.3109 154.584 74.8843 155.352C74.4789 156.099 74.2763 156.984 74.2763 158.008V158.648C74.2763 159.672 74.5109 160.579 74.9803 161.368C75.4496 162.157 76.1109 162.765 76.9643 163.192C77.8176 163.619 78.7989 163.832 79.9083 163.832C80.8683 163.832 81.7323 163.683 82.5003 163.384C83.2683 163.085 83.9509 162.616 84.5483 161.976L86.6923 164.44C85.9243 165.336 84.9536 166.029 83.7803 166.52C82.6283 166.989 81.3056 167.224 79.8123 167.224ZM91.6865 167V149.912H95.4945V154.616L95.0465 153.24C95.5585 152.088 96.3585 151.213 97.4465 150.616C98.5558 150.019 99.9318 149.72 101.575 149.72V153.528C101.404 153.485 101.244 153.464 101.095 153.464C100.945 153.443 100.796 153.432 100.647 153.432C99.1318 153.432 97.9265 153.88 97.0305 154.776C96.1345 155.651 95.6865 156.963 95.6865 158.712V167H91.6865ZM110.404 167.224C108.975 167.224 107.599 167.043 106.276 166.68C104.975 166.296 103.94 165.837 103.172 165.304L104.708 162.264C105.476 162.755 106.393 163.16 107.46 163.48C108.527 163.8 109.593 163.96 110.66 163.96C111.919 163.96 112.825 163.789 113.38 163.448C113.956 163.107 114.244 162.648 114.244 162.072C114.244 161.603 114.052 161.251 113.668 161.016C113.284 160.76 112.783 160.568 112.164 160.44C111.545 160.312 110.852 160.195 110.084 160.088C109.337 159.981 108.58 159.843 107.812 159.672C107.065 159.48 106.383 159.213 105.764 158.872C105.145 158.509 104.644 158.029 104.26 157.432C103.876 156.835 103.684 156.045 103.684 155.064C103.684 153.976 103.993 153.037 104.612 152.248C105.231 151.437 106.095 150.819 107.204 150.392C108.335 149.944 109.668 149.72 111.204 149.72C112.356 149.72 113.519 149.848 114.692 150.104C115.865 150.36 116.836 150.723 117.604 151.192L116.068 154.232C115.257 153.741 114.436 153.411 113.604 153.24C112.793 153.048 111.983 152.952 111.172 152.952C109.956 152.952 109.049 153.133 108.452 153.496C107.876 153.859 107.588 154.317 107.588 154.872C107.588 155.384 107.78 155.768 108.164 156.024C108.548 156.28 109.049 156.483 109.668 156.632C110.287 156.781 110.969 156.909 111.716 157.016C112.484 157.101 113.241 157.24 113.988 157.432C114.735 157.624 115.417 157.891 116.036 158.232C116.676 158.552 117.188 159.011 117.572 159.608C117.956 160.205 118.148 160.984 118.148 161.944C118.148 163.011 117.828 163.939 117.188 164.728C116.569 165.517 115.684 166.136 114.532 166.584C113.38 167.011 112.004 167.224 110.404 167.224ZM128.025 167.224C126.147 167.224 124.697 166.744 123.673 165.784C122.649 164.803 122.137 163.363 122.137 161.464V146.136H126.137V161.368C126.137 162.179 126.339 162.808 126.745 163.256C127.171 163.704 127.758 163.928 128.505 163.928C129.401 163.928 130.147 163.693 130.745 163.224L131.865 166.072C131.395 166.456 130.819 166.744 130.137 166.936C129.454 167.128 128.75 167.224 128.025 167.224ZM119.321 153.24V150.04H130.713V153.24H119.321ZM145.683 167V163.544L145.459 162.808V156.76C145.459 155.587 145.107 154.68 144.403 154.04C143.699 153.379 142.633 153.048 141.203 153.048C140.243 153.048 139.294 153.197 138.355 153.496C137.438 153.795 136.659 154.211 136.019 154.744L134.451 151.832C135.369 151.128 136.457 150.605 137.715 150.264C138.995 149.901 140.318 149.72 141.683 149.72C144.158 149.72 146.067 150.317 147.411 151.512C148.777 152.685 149.459 154.509 149.459 156.984V167H145.683ZM140.307 167.224C139.027 167.224 137.907 167.011 136.947 166.584C135.987 166.136 135.241 165.528 134.707 164.76C134.195 163.971 133.939 163.085 133.939 162.104C133.939 161.144 134.163 160.28 134.611 159.512C135.081 158.744 135.838 158.136 136.883 157.688C137.929 157.24 139.315 157.016 141.043 157.016H146.003V159.672H141.331C139.966 159.672 139.049 159.896 138.579 160.344C138.11 160.771 137.875 161.304 137.875 161.944C137.875 162.669 138.163 163.245 138.739 163.672C139.315 164.099 140.115 164.312 141.139 164.312C142.121 164.312 142.995 164.088 143.763 163.64C144.553 163.192 145.118 162.531 145.459 161.656L146.131 164.056C145.747 165.059 145.054 165.837 144.051 166.392C143.07 166.947 141.822 167.224 140.307 167.224ZM164.289 149.72C165.654 149.72 166.87 149.987 167.937 150.52C169.025 151.053 169.878 151.875 170.497 152.984C171.115 154.072 171.425 155.48 171.425 157.208V167H167.425V157.72C167.425 156.205 167.062 155.075 166.337 154.328C165.633 153.581 164.641 153.208 163.361 153.208C162.422 153.208 161.59 153.4 160.865 153.784C160.139 154.168 159.574 154.744 159.169 155.512C158.785 156.259 158.593 157.208 158.593 158.36V167H154.593V149.912H158.401V154.52L157.729 153.112C158.326 152.024 159.19 151.192 160.321 150.616C161.473 150.019 162.795 149.72 164.289 149.72ZM183.762 167.224C182.12 167.224 180.637 166.861 179.314 166.136C178.013 165.389 176.989 164.365 176.242 163.064C175.496 161.763 175.122 160.227 175.122 158.456C175.122 156.685 175.496 155.149 176.242 153.848C176.989 152.547 178.013 151.533 179.314 150.808C180.637 150.083 182.12 149.72 183.762 149.72C185.192 149.72 186.472 150.04 187.602 150.68C188.733 151.299 189.629 152.248 190.29 153.528C190.952 154.808 191.282 156.451 191.282 158.456C191.282 160.44 190.962 162.083 190.322 163.384C189.682 164.664 188.797 165.624 187.666 166.264C186.536 166.904 185.234 167.224 183.762 167.224ZM184.242 163.8C185.202 163.8 186.056 163.587 186.802 163.16C187.57 162.733 188.178 162.115 188.626 161.304C189.096 160.493 189.33 159.544 189.33 158.456C189.33 157.347 189.096 156.397 188.626 155.608C188.178 154.797 187.57 154.179 186.802 153.752C186.056 153.325 185.202 153.112 184.242 153.112C183.282 153.112 182.418 153.325 181.65 153.752C180.904 154.179 180.296 154.797 179.826 155.608C179.378 156.397 179.154 157.347 179.154 158.456C179.154 159.544 179.378 160.493 179.826 161.304C180.296 162.115 180.904 162.733 181.65 163.16C182.418 163.587 183.282 163.8 184.242 163.8ZM189.426 167V162.968L189.586 158.424L189.266 153.88V143.256H193.234V167H189.426Z" fill="#13151A"/>
</svg>
