<?xml version="1.0" encoding="utf-8"?>
<!-- Generator: Adobe Illustrator 27.2.0, SVG Export Plug-In . SVG Version: 6.00 Build 0)  -->
<svg version="1.1" id="Layer_1" xmlns="http://www.w3.org/2000/svg" xmlns:xlink="http://www.w3.org/1999/xlink" x="0px" y="0px"
	 viewBox="0 0 1920 1080" style="enable-background:new 0 0 1920 1080;" xml:space="preserve">
<style type="text/css">
	.st0{fill:#EDA921;}
</style>
<path class="st0" d="M1359.3,583.8c-1.8-63.4-42.6-114.1-82.6-159.4c-12.7-14.4-26.1-28.1-40-41.3c-7.9-11.2-16.6-22-26-32.4
	c-2.6-2.9-5.4-5.7-8.1-8.6c-21.5-31.9-49.1-58.3-82.3-78.2c-38.2-23-82.8-40.3-127.8-40.3c-44.2,0-87.5,16.6-124.2,40.5
	c-34.3,22.3-67.4,50-94.5,80.9c-18.9,21.6-41.1,50.2-49.7,80.4c-4.3,7.5-6.9,16.2-7.6,25.8c-5.5,73.1,53.8,141.5,110.8,179
	c29.3,19.3,62.5,30.6,97.2,34.7c18.3,2.1,36.7,0.9,54.9-2c0.6,0,1.2,0,1.8,0.1c0.3,0,0.5,0,0.8,0c0.3,0.1,0.6,0.1,0.9,0.2
	c3.8,0.9,7.6,1.6,11.3,2.6c6.2,1.6,12.8,3.5,18.8,6c1.7,0.9,4.4,2.3,5.5,2.8c4.1,2.1,8.2,4.3,12.2,6.7c6.9,4,13.6,8.4,20.1,13.1
	c1.2,0.9,2.4,1.7,3.6,2.6c2.7,2.2,5.4,4.5,8.1,6.8c1.9,1.6,3.7,3.2,5.5,4.9c15.8,24,33.8,46.3,56.6,62.8
	c26.4,19.2,58.5,24.4,90.1,18.2c28.5-5.6,55-25.1,74.8-45.8C1329.1,702,1361,643.4,1359.3,583.8z"/>
</svg>
